<svg width="20" height="20" viewBox="0 0 20 20" fill="none" xmlns="http://www.w3.org/2000/svg">
<path fill-rule="evenodd" clip-rule="evenodd" d="M10 1.66669C9.60296 1.66669 9.21079 1.75435 8.85152 1.92342L3.5807 4.4038C2.41239 4.9536 1.66669 6.12866 1.66669 7.41987V13.3334C1.66669 14.1648 2.14688 14.9215 2.8992 15.2755L8.85152 18.0766C9.21079 18.2457 9.60296 18.3334 10 18.3334C10.3971 18.3334 10.7893 18.2457 11.1485 18.0766L17.1008 15.2755C17.8532 14.9215 18.3334 14.1648 18.3334 13.3334V7.41987C18.3334 6.12866 17.5877 4.9536 16.4193 4.40381L11.1485 1.92342C10.7893 1.75435 10.3971 1.66669 10 1.66669ZM16.6667 11.985L10.8334 9.06833V3.61709L15.7097 5.91184C16.2938 6.18673 16.6667 6.77426 16.6667 7.41987V11.985ZM10 10.515L16.4453 13.7377C16.428 13.7487 16.41 13.7587 16.3912 13.7675L10.4389 16.5686C10.3016 16.6332 10.1517 16.6667 10 16.6667C9.8483 16.6667 9.69845 16.6332 9.56118 16.5686L3.60887 13.7675C3.59006 13.7587 3.572 13.7487 3.55478 13.7377L10 10.515ZM9.16669 9.06833L3.33335 11.985V7.41987C3.33335 6.77426 3.70621 6.18673 4.29036 5.91184L9.16669 3.61709V9.06833Z" fill="#4DC479"/>
</svg>
