<svg width="276" height="307" viewBox="0 0 276 307" fill="none" xmlns="http://www.w3.org/2000/svg">
<path d="M128.25 75.1563C128.449 75.1572 128.644 75.0939 128.805 74.9757C128.966 74.8575 129.085 74.6907 129.144 74.4998C129.195 73.8937 129.039 73.288 128.701 72.7825C128.324 72.2496 127.898 71.8676 127.2 72.2753C126.184 72.8691 127.094 75.1563 128.25 75.1563Z" fill="#0E4C25"/>
<path d="M130.798 72.391C131.842 73.6982 133.011 74.8997 134.289 75.9781C132.96 76.7357 132.407 76.9411 132.403 77.4708C132.412 77.6425 132.478 77.8063 132.591 77.9362C132.686 78.0213 132.801 78.0807 132.926 78.1087C133.05 78.1368 133.18 78.1327 133.302 78.0967C134.042 77.7634 134.75 77.3609 135.414 76.8946C135.555 76.7981 135.671 76.6685 135.75 76.5171C135.829 76.3657 135.87 76.1971 135.869 76.0263C135.856 75.4212 135.292 75.0087 134.992 74.792C133.846 73.7953 132.782 72.6494 131.622 71.5355C131.478 71.4331 131.306 71.3771 131.129 71.375C131.01 71.375 130.895 71.4125 130.799 71.4822C130.703 71.5519 130.631 71.6501 130.595 71.7629C130.558 71.8757 130.558 71.9972 130.595 72.11C130.631 72.2228 130.702 72.3212 130.798 72.391Z" fill="#0E4C25"/>
<path d="M134.267 77.7209C133.555 78.1092 132.752 78.301 131.942 78.2768C131.131 78.2525 130.342 78.013 129.654 77.5829C129.666 77.4886 129.656 77.3929 129.626 77.3026C129.597 77.2124 129.547 77.1299 129.482 77.0611C129.416 76.9923 129.336 76.939 129.247 76.9048C129.159 76.8707 129.063 76.8567 128.969 76.8639C128.614 76.8639 128.487 77.042 127.802 77.6439C127.712 77.7267 127.648 77.8338 127.618 77.9523C127.588 78.0707 127.593 78.1953 127.633 78.3109C127.673 78.4265 127.745 78.528 127.841 78.6031C127.938 78.6782 128.054 78.7236 128.176 78.7337C128.705 81.9726 131.816 83.1218 133.772 81.3322C134.276 80.7432 133.631 79.801 132.777 80.3692C132.489 80.6411 132.112 80.8009 131.716 80.8198C131.32 80.8386 130.93 80.7152 130.617 80.4719C130.133 80.0682 129.779 79.5305 129.599 78.9263C131.956 79.9888 134.705 79.1478 135.045 78.4705C135.103 78.3626 135.123 78.239 135.104 78.1183C135.085 77.9977 135.027 77.8865 134.939 77.8018C134.851 77.717 134.738 77.6633 134.616 77.6487C134.495 77.6341 134.372 77.6595 134.267 77.7209Z" fill="#0E4C25"/>
<path d="M127.173 71.0762C128.232 70.9719 128.216 69.8436 127.548 69.728C126.986 69.7427 126.441 69.9244 125.982 70.25C125.523 70.5755 125.172 71.0302 124.972 71.5561C124.936 71.6553 124.927 71.7624 124.946 71.8662C124.965 71.97 125.012 72.0668 125.082 72.1465C125.151 72.2261 125.24 72.2857 125.34 72.3191C125.441 72.3524 125.548 72.3583 125.651 72.3362C126.086 72.235 125.951 71.8547 126.666 71.3491C126.822 71.2362 126.992 71.1445 127.173 71.0762Z" fill="#0E4C25"/>
<path d="M53.6043 124.654C54.2575 124.247 53.6155 123.097 52.9398 123.516C49.6977 125.542 27.966 139.019 20.4338 143.9C20.2945 144.007 20.2008 144.163 20.1714 144.337C20.1421 144.51 20.1792 144.689 20.2753 144.836C20.3715 144.983 20.5197 145.089 20.6903 145.132C20.861 145.175 21.0416 145.152 21.1961 145.068C32.07 138.536 42.7738 131.49 53.6043 124.654Z" fill="#0E4C25"/>
<path d="M41.3389 91.3264C41.4211 91.3309 41.5033 91.3167 41.5792 91.2849C41.6551 91.253 41.7229 91.2044 41.7773 91.1426C41.8316 91.0807 41.8713 91.0074 41.8932 90.928C41.9152 90.8487 41.9188 90.7654 41.9039 90.6844C41.9151 90.6077 41.9104 90.5295 41.8899 90.4548C41.8695 90.38 41.8338 90.3103 41.7851 90.25C41.7364 90.1897 41.6758 90.1401 41.607 90.1044C41.5382 90.0686 41.4628 90.0475 41.3854 90.0424C27.8118 89.294 14.2011 89.566 0.668198 90.8561C0.522839 90.8769 0.389546 90.9485 0.291973 91.0583C0.1944 91.168 0.138858 91.3087 0.135202 91.4555C0.131547 91.6023 0.180015 91.7457 0.272006 91.8601C0.363996 91.9746 0.493559 92.0527 0.637703 92.0807C0.637703 92.0807 39.9843 91.3087 41.3389 91.3264Z" fill="#0E4C25"/>
<path d="M45.4765 36.3729C45.5553 36.4397 45.6479 36.4885 45.7476 36.5157C45.8473 36.543 45.9518 36.5481 46.0536 36.5306C46.1555 36.5132 46.2523 36.4736 46.3373 36.4148C46.4223 36.3559 46.4933 36.2791 46.5454 36.1899C46.5919 36.0668 46.6045 35.9336 46.5819 35.804C46.5593 35.6744 46.5024 35.5533 46.417 35.4532C40.8974 29.6736 34.8963 23.8153 28.0895 17.5671C28.0256 17.5081 27.9488 17.4648 27.8653 17.4405C27.7818 17.4162 27.6937 17.4117 27.6082 17.4273C27.5226 17.4428 27.4418 17.4781 27.3721 17.5302C27.3025 17.5823 27.2459 17.6499 27.2068 17.7276C26.7478 18.6456 26.3064 17.0936 45.4765 36.3729Z" fill="#0E4C25"/>
<path d="M69.7121 13.8405C74.6507 23.2266 74.5833 23.2924 75.1178 23.2924H75.2638C75.3658 23.2917 75.4657 23.2633 75.5528 23.2102C75.64 23.1571 75.711 23.0814 75.7585 22.9911C75.806 22.9008 75.828 22.7994 75.8223 22.6975C75.8166 22.5957 75.7833 22.4973 75.7261 22.4129C74.9011 20.6185 73.9172 18.861 72.9671 17.1581C72.6573 16.606 68.9658 9.80879 68.2885 8.57775C68.2348 8.47679 68.1522 8.39414 68.0513 8.34039C67.9504 8.28664 67.8357 8.26422 67.7219 8.27601C67.6256 8.27653 67.5309 8.30177 67.4471 8.34932C67.3632 8.39687 67.293 8.46513 67.2431 8.54758C67.1931 8.63003 67.1652 8.72391 67.1619 8.82024C67.1587 8.91657 67.1802 9.01213 67.2244 9.09777C68.0429 10.6771 68.8807 12.2596 69.7121 13.8405Z" fill="#0E4C25"/>
<path d="M149.057 25.6949C149.907 25.3626 148.72 26.0801 154.835 1.22023C154.857 1.10417 154.846 0.984284 154.805 0.873782C154.763 0.763279 154.691 0.666442 154.598 0.593928C154.505 0.521414 154.393 0.476037 154.276 0.46279C154.159 0.449543 154.04 0.46894 153.933 0.518847C153.759 0.604444 153.626 0.754891 153.562 0.937753C151.382 8.88754 149.623 16.9467 148.291 25.0818C148.274 25.1805 148.284 25.2819 148.319 25.3756C148.355 25.4692 148.415 25.5517 148.493 25.6143C148.571 25.6769 148.665 25.7174 148.764 25.7316C148.863 25.7457 148.964 25.7331 149.057 25.6949Z" fill="#0E4C25"/>
<path d="M206.562 44.8826C208.333 42.5586 210.394 40.4712 212.695 38.6713C212.695 38.6713 230.923 22.6823 234.436 19.5429C235.038 19.0245 234.453 17.9652 233.515 18.5045C230.268 21.2988 211.501 37.925 211.501 37.925C209.237 39.7101 207.227 41.7955 205.526 44.1235C205.436 44.2774 205.408 44.4596 205.447 44.6334C205.486 44.8072 205.589 44.9599 205.736 45.0608C205.875 45.1215 206.03 45.1369 206.178 45.1049C206.326 45.073 206.461 44.9952 206.562 44.8826Z" fill="#0E4C25"/>
<path d="M224.627 70.1564C224.415 70.235 224.327 70.4565 224.262 70.7133C224.237 70.813 224.24 70.9177 224.27 71.0161C224.3 71.1144 224.357 71.2026 224.433 71.2709C224.51 71.3393 224.604 71.3853 224.705 71.4039C224.807 71.4224 224.911 71.4128 225.007 71.3762C236.502 66.9929 238.52 66.6912 243.718 64.9064C243.875 64.8278 244.002 64.6983 244.076 64.5389C244.122 64.4307 244.138 64.3118 244.121 64.1954C244.104 64.0789 244.056 63.9693 243.981 63.8785C243.906 63.7877 243.808 63.7193 243.696 63.6806C243.585 63.642 243.466 63.6346 243.351 63.6594C238.812 64.9032 228.987 68.5177 224.627 70.1564Z" fill="#0E4C25"/>
<path d="M275.494 125.091C275.122 124.945 225.479 123.09 221.826 123.165C221.728 123.167 221.632 123.195 221.548 123.246C221.464 123.297 221.394 123.37 221.347 123.456C221.3 123.542 221.276 123.639 221.277 123.737C221.279 123.835 221.307 123.931 221.357 124.016C221.401 124.117 221.472 124.205 221.563 124.268C221.654 124.331 221.76 124.367 221.871 124.372C226.609 124.533 273.035 126.399 275.244 126.399C275.4 126.396 275.55 126.34 275.669 126.239C275.789 126.139 275.87 126 275.899 125.847C275.929 125.693 275.904 125.535 275.831 125.397C275.757 125.259 275.638 125.151 275.494 125.091Z" fill="#0E4C25"/>
<path d="M257.004 158.249C256.87 158.088 257.634 158.473 244.362 152.354C245.094 151.044 245.851 149.745 246.633 148.458C246.691 148.299 246.695 148.126 246.645 147.964C246.594 147.803 246.491 147.663 246.353 147.565C246.214 147.468 246.047 147.42 245.878 147.427C245.709 147.435 245.547 147.498 245.418 147.608L239.937 150.463C229.825 145.739 220.531 141.677 211.567 138.059C207.912 136.589 198.218 132.763 198.186 132.742L198.173 132.766C197.587 132.596 197.531 132.723 197.406 133.029C197.181 133.586 197.213 133.575 199.451 134.487C190.601 151.606 182.277 165.417 172.447 185.575C170.982 186.258 169.788 187.413 169.057 188.854C168.067 191.366 170.572 191.381 159.427 142.972C155.183 124.537 155.514 125.573 155.296 125.393C155.2 125.314 155.085 125.262 154.963 125.244C154.84 125.225 154.715 125.241 154.601 125.288C154.601 125.288 146.864 126.699 144.049 127.282C143.808 125.39 144.037 123.469 144.715 121.687C144.825 121.789 144.967 121.851 145.116 121.863C145.266 121.876 145.415 121.837 145.54 121.754C148.21 120.253 150.673 118.41 152.867 116.273C154.023 115.277 155.003 114.095 155.769 112.776C156.115 111.523 155.952 110.184 155.315 109.051C154.239 105.985 152.952 102.998 151.463 100.111C168.383 89.4218 183.206 75.7285 195.199 59.7065C195.642 59.7611 198.467 60.111 198.666 60.111C200.061 60.111 200.64 58.774 199.807 57.9426C200.404 57.9234 201.33 57.795 201.508 56.9203C201.549 56.6771 201.513 56.4275 201.406 56.2052C201.3 55.983 201.128 55.7989 200.913 55.678C200.992 55.554 201.045 55.4155 201.069 55.2706C201.093 55.1258 201.088 54.9776 201.054 54.8347C201.02 54.6918 200.958 54.5572 200.871 54.4388C200.784 54.3204 200.675 54.2205 200.548 54.1452C199.5 53.5061 198.27 53.2329 197.05 53.3684C197.193 53.2299 197.301 53.0581 197.362 52.8681C197.424 52.6781 197.437 52.4759 197.402 52.2794C197.366 52.0829 197.283 51.8983 197.158 51.7419C197.034 51.5855 196.873 51.4622 196.69 51.383C196.203 51.228 195.674 51.2706 195.218 51.5018C193.595 51.9936 192.187 53.0224 191.225 54.4197C190.567 54.5529 177.38 60.6278 168.755 65.2855C160.233 69.8951 141.167 81.4623 133.776 86.1056C133.676 85.8648 133.561 85.5775 133.495 85.3673C133.848 85.2621 134.195 85.1367 134.533 84.9917C137.785 83.0946 138.827 78.8494 138.127 75.3778C138.077 75.1161 137.998 74.8642 137.942 74.6041C138.802 73.4496 139.504 72.1855 140.029 70.8452C140.1 70.1673 140.036 69.482 139.84 68.8291C139.645 68.1761 139.321 67.5685 138.889 67.0414C138.586 66.6491 138.417 66.1696 138.408 65.6739C138.52 64.6901 140.173 63.7656 139.05 61.7449C138.672 61.0498 138.166 60.4327 137.559 59.9264C135.462 57.7226 132.883 56.0359 130.023 54.9991C127.364 54.049 124.457 54.049 121.798 54.9991C120.625 55.6344 119.493 56.3415 118.408 57.1161C117.328 57.6672 116.193 58.1039 115.023 58.4193C113.679 58.9708 112.499 59.8589 111.597 60.9981C110.695 62.1373 110.101 63.4894 109.872 64.9244C109.341 67.876 110.617 70.7024 110.262 73.5914C109.982 75.8673 107.47 77.3391 105.049 78.4786C104.247 78.7806 103.475 79.1567 102.743 79.6021C81.6918 72.5401 62.4013 66.9322 50.3414 63.8523C50.182 63.7842 50.0024 63.7807 49.8406 63.8426C49.2607 62.7908 48.4963 61.8519 47.584 61.0708C47.3876 60.9371 47.161 60.8547 46.9246 60.8312C46.6883 60.8076 46.4498 60.8437 46.2309 60.936C45.5103 61.3067 45.6564 62.2344 45.8762 63.0128C44.6722 62.4914 43.3401 62.3406 42.0499 62.5795C41.8762 62.6104 41.7131 62.685 41.5762 62.7963C41.4392 62.9075 41.3328 63.0518 41.267 63.2156C41.2012 63.3793 41.1781 63.5571 41.1999 63.7322C41.2218 63.9074 41.2878 64.074 41.3919 64.2166C41.1408 64.278 40.9152 64.4163 40.7464 64.612C40.5776 64.8077 40.4741 65.0513 40.4503 65.3086C40.4264 65.566 40.4834 65.8244 40.6134 66.0478C40.7433 66.2712 40.9397 66.4485 41.1752 66.5551C40.9379 66.7612 40.7866 67.049 40.7512 67.3613C40.7159 67.6737 40.799 67.9879 40.9842 68.2419C41.8814 69.5356 43.1237 68.5982 47.0832 70.7634C47.0688 70.8549 47.0367 70.9351 47.0222 71.0266C47.0222 72.821 48.5438 73.7936 49.7652 74.5769C62.4222 82.695 74.2013 90.1261 94.6378 101.302C92.9525 104.982 91.0907 108.625 89.0796 112.134C89.0096 112.272 88.9847 112.428 89.0083 112.58C89.0319 112.733 89.1029 112.874 89.2112 112.985C94.1033 116.977 99.466 120.356 105.179 123.045C106.115 123.669 107.177 124.077 108.29 124.24C108.739 124.25 109.175 124.094 109.518 123.804C109.678 123.616 109.811 123.414 109.956 123.216C110.002 123.236 110.051 123.25 110.097 123.269C110.295 127.704 107.906 131.27 105.574 135.092C90.2673 138.413 74.8032 141.98 59.5107 145.736C59.3449 145.811 59.2118 145.943 59.1362 146.108C59.0606 146.274 59.0477 146.461 59.0998 146.635C63.077 157.379 66.6995 168.277 70.4953 179.356C70.3348 179.292 31.9609 164.181 24.8925 162.297C23.9953 161.358 22.4079 163.04 23.7882 163.372C36.6571 181.431 50.3975 205.389 68.5677 235.918C62.465 234.73 56.1522 235.263 50.3349 237.457C45.7398 239.232 40.668 243.315 41.5074 248.986C42.3308 254.603 48.4812 257.587 53.0779 259.601C59.5739 262.361 65.7852 265.747 71.6237 269.713C77.3081 273.771 81.6954 279.389 84.255 285.888C84.1238 285.965 84.0238 286.086 83.9725 286.23C83.0641 289.026 81.1959 297.576 80.4833 300.805C80.0386 302.381 79.725 303.992 79.5459 305.62C79.5475 305.785 79.609 305.943 79.7191 306.066C79.8291 306.189 79.9801 306.268 80.1439 306.287C80.3077 306.307 80.473 306.267 80.609 306.173C80.745 306.08 80.8424 305.94 80.8829 305.78C81.3563 304.193 81.7172 302.574 81.9631 300.936C82.3033 299.344 84.7012 288.989 85.0126 287.6C110.211 297.465 137.389 298.852 164.056 293.136C165.663 292.994 167.229 292.547 168.668 291.818C169.036 292.879 173.845 306.037 173.845 306.037C173.91 306.22 174.045 306.368 174.22 306.451C174.395 306.534 174.596 306.544 174.779 306.478C174.961 306.413 175.11 306.278 175.193 306.103C175.276 305.928 175.285 305.727 175.22 305.544C175.22 305.544 170.338 292.335 169.665 290.733C170.167 289.972 170.449 289.087 170.48 288.175C171.336 283.325 173.195 278.707 175.937 274.617C178.68 270.527 182.247 267.054 186.408 264.421C196.82 257.82 204.187 256.136 215.737 252.136C218.977 251.165 222.138 249.945 225.19 248.487C229.96 246.155 234.467 241.351 231.743 236.027C229.093 230.844 221.401 228.785 215.39 229.073C214.406 229.129 213.427 229.244 212.458 229.419C228.476 206.656 240.783 183.035 257.008 159.136C257.111 159.011 257.167 158.854 257.167 158.692C257.166 158.53 257.109 158.373 257.004 158.249ZM200.756 135.203C200.916 135.203 215.135 140.876 222.306 143.98C225.717 145.457 236.568 150.322 238.529 151.192L174.604 184.476C181.627 170.299 200.653 135.363 200.756 135.203ZM168.954 193.893C169.044 193.812 169.115 193.713 169.163 193.602C169.211 193.491 169.235 193.371 169.233 193.251C169.233 193.185 169.214 193.117 169.206 193.052C170.071 190.177 170.384 188.209 172.976 186.911C175.783 185.505 243.813 150.028 243.975 149.943C240.046 156.997 236.629 164.324 233.748 171.867C232.945 173.832 209.002 231.042 207.747 233.507C206.413 235.794 203.633 236.895 201.295 238.183C180.9 249.432 160.948 260.112 141.401 272.247C151.928 246.289 160.688 220.653 168.959 193.894L168.954 193.893ZM127.163 128.961C127.292 129.368 127.507 129.742 127.794 130.058C128.081 130.373 128.433 130.623 128.826 130.79C126.589 131.001 124.336 130.98 122.103 130.728C120.007 130.292 117.935 129.751 115.894 129.107L116.646 125.285C120.21 126.109 123.85 126.559 127.508 126.627C127.142 127.346 127.02 128.166 127.163 128.961ZM133.346 128.425C133.727 128.383 134.107 128.321 134.482 128.24C134.147 128.667 133.72 129.012 133.233 129.249C132.745 129.487 132.21 129.61 131.668 129.611C130.875 129.707 129.4 129.888 128.815 129.181C128.56 128.787 128.444 128.321 128.485 127.854C128.526 127.387 128.721 126.948 129.039 126.605C130.575 126.573 132.107 126.42 133.618 126.146C133.642 126.146 133.667 126.178 133.691 126.179C134.004 126.216 134.291 126.371 134.493 126.613L133.209 126.831C133.011 126.864 132.832 126.971 132.709 127.13C132.585 127.29 132.526 127.489 132.543 127.69C132.56 127.89 132.652 128.077 132.8 128.213C132.949 128.349 133.143 128.425 133.344 128.425H133.346ZM127.259 160.139C127.385 159.645 127.794 158.42 128.251 158.172C130.233 149.258 131.673 141.687 130.158 132.943C130.122 132.733 130.17 132.517 130.293 132.343C130.415 132.169 130.602 132.051 130.812 132.014C131.022 131.978 131.238 132.026 131.412 132.149C131.586 132.272 131.704 132.458 131.741 132.668C132.312 136.424 132.491 140.229 132.273 144.022C132.785 143.709 133.22 143.286 133.546 142.782C133.872 142.279 134.08 141.709 134.156 141.114C134.346 138.227 134.179 135.328 133.66 132.482C133.639 132.377 133.639 132.27 133.66 132.165C133.681 132.06 133.723 131.961 133.783 131.873C133.843 131.784 133.92 131.709 134.01 131.651C134.099 131.593 134.2 131.553 134.305 131.534C134.41 131.515 134.518 131.517 134.622 131.541C134.726 131.564 134.825 131.608 134.912 131.67C134.999 131.731 135.072 131.81 135.129 131.901C135.185 131.992 135.223 132.093 135.239 132.198C135.796 135.214 135.965 138.288 135.743 141.346C135.61 142.365 135.2 143.327 134.557 144.128C133.914 144.929 133.064 145.538 132.098 145.889C131.678 149.429 130.717 154.291 129.909 158.056C129.954 158.068 129.998 158.082 130.041 158.098C130.72 158.369 130.803 160.422 130.957 161.117C133.978 175.019 136.138 179.253 148.307 210.906C145.502 211.869 147.965 211.215 131.455 217.497C128.384 218.666 117.475 222.545 115.121 223.405C114.111 221.226 108.961 210.084 107.362 206.66C109.577 202.235 117.039 185.023 118.064 182.523C121.671 173.735 116.999 185.532 127.259 160.139ZM135.581 125.723C136.724 125.426 137.847 125.058 138.944 124.621L139.119 128.452C137.759 128.933 136.403 129.376 135.055 129.725C135.647 129.258 136.034 128.579 136.133 127.831C136.231 127.084 136.033 126.327 135.581 125.723ZM148.763 212.098C151.031 217.988 153.325 223.872 155.698 229.724C155.779 230.089 149.092 248.809 139.786 272.963C131.477 258.46 123.165 240.741 115.61 224.461C124.637 221.473 145.998 213.366 148.763 212.098ZM153.622 126.767C153.812 126.707 154.005 126.657 154.201 126.617C154.351 127.015 154.467 127.424 154.549 127.84C160.111 152.594 165.176 172.483 167.71 192.666C167.5 193.329 167.333 193.997 167.148 194.663C166.985 190.315 166.432 185.99 165.499 181.739C161.125 160.072 155.609 147.425 148.439 136.23C146.627 133.894 145.221 131.27 144.28 128.468C144.876 128.367 153.049 126.937 153.622 126.767ZM145.16 135.466C145.293 135.402 145.439 135.368 145.586 135.367C145.734 135.365 145.88 135.395 146.015 135.455C146.168 135.533 146.292 135.658 146.368 135.811C146.444 135.965 146.47 136.138 146.44 136.307C146.41 136.476 146.327 136.631 146.203 136.749C146.079 136.868 145.921 136.943 145.751 136.965C141.314 138.39 138.904 135.816 138.059 131.355C138.02 131.146 138.065 130.93 138.186 130.754C138.306 130.578 138.491 130.457 138.7 130.418C138.909 130.379 139.125 130.424 139.301 130.544C139.477 130.664 139.598 130.849 139.637 131.058C140.29 134.511 141.82 136.559 145.16 135.466ZM142.63 127.048C141.921 127.369 141.213 127.672 140.505 127.95C140.597 127.468 140.592 127.722 140.164 124.12C141.098 123.7 142.008 123.23 142.892 122.712C142.536 124.129 142.448 125.599 142.63 127.048ZM153.422 108.078C153.988 109.174 154.374 110.353 154.565 111.571C154.565 112.588 153.304 113.694 152.58 114.479C150.581 116.629 148.291 118.49 145.778 120.008C145.751 119.847 144.603 113.85 144.569 113.686C144.624 113.525 146.462 97.7964 145.545 93.0729C148.766 97.7386 151.411 102.777 153.422 108.078ZM195.604 53.0265C194.308 54.0361 194.265 53.837 194.137 54.15C194.087 54.2896 194.079 54.4404 194.113 54.5845C194.147 54.7286 194.222 54.8597 194.329 54.9622C194.417 55.0356 194.521 55.0882 194.632 55.116C194.743 55.1438 194.859 55.1461 194.971 55.1227C195.749 54.9167 196.557 54.8471 197.359 54.9172C197.033 54.9606 196.711 55.032 196.396 55.1307C196.222 55.1783 196.071 55.2891 195.973 55.4417C195.875 55.5942 195.838 55.7777 195.868 55.9563C195.898 56.1349 195.993 56.296 196.135 56.4083C196.278 56.5206 196.456 56.5761 196.637 56.5639C197.347 56.4653 198.068 56.4653 198.778 56.5639C199.088 56.572 198.881 56.5784 196.692 56.6602C195.441 56.3778 195.197 58.0068 196.21 58.132C196.75 58.2304 197.283 58.3688 197.802 58.5461C197.372 58.4964 195.485 58.2572 194.957 58.201C194.215 57.0855 193.36 56.0496 192.405 55.1098C193.269 54.148 194.373 53.4329 195.604 53.0378V53.0265ZM181.817 60.2314C181.977 60.1543 191.085 55.8754 191.248 55.938C192.218 56.9666 193.082 58.0904 193.827 59.2924C193.604 59.5803 193.367 59.8562 193.116 60.119C181.392 75.4247 167.052 88.5352 150.76 98.8445C149.484 96.4683 148.073 94.1673 146.534 91.9526C146.463 91.8501 146.367 91.7677 146.255 91.7135C146.143 91.6593 146.019 91.6351 145.894 91.6433C145.77 91.6516 145.65 91.692 145.546 91.7605C145.442 91.8291 145.358 91.9235 145.301 92.0344C144.95 90.335 144.165 88.7554 143.022 87.449C141.88 86.1427 140.419 85.154 138.782 84.5792C152.622 76.108 166.935 67.3528 181.817 60.2314ZM137.198 85.5502C142.886 86.0622 144.476 92.6122 144.516 96.4129C144.516 98.9648 144.329 100.483 143.619 109.36C142.254 103.13 140.458 97.001 138.246 91.0185C137.808 89.3075 136.959 87.7294 135.772 86.4218L137.198 85.5502ZM133.545 87.7026C133.899 87.5966 133.848 87.5982 134.626 87.1231C136.061 88.8153 137.067 90.8279 137.56 92.991C138.172 94.8978 139.229 97.806 140.693 103.146C142.223 108.729 143.431 114.395 144.313 120.116C139.742 123.386 134.29 125.199 128.672 125.319C118.345 125.56 111.383 122.017 110.63 122.186C112.395 119.317 113.951 116.324 115.284 113.23C118.713 105.324 120.693 96.8659 121.13 88.2595C121.176 88.1584 121.329 87.8037 121.359 87.7266C132.442 91.8515 121.706 87.8438 128.864 90.5257C128.934 90.5543 129.009 90.5687 129.084 90.5679C129.159 90.5671 129.233 90.5512 129.302 90.5212C129.371 90.4911 129.433 90.4475 129.485 90.393C129.537 90.3385 129.577 90.2741 129.604 90.2037C129.63 90.1332 129.642 90.0582 129.639 89.9831C129.636 89.9079 129.618 89.8342 129.586 89.7662C129.554 89.6981 129.508 89.6373 129.452 89.5872C129.396 89.5371 129.33 89.4988 129.259 89.4745C122.839 87.067 123.783 87.4474 123.452 87.2194C123.43 87.0463 123.397 86.8748 123.353 86.7058C123.353 86.6561 123.329 86.6192 123.322 86.5726C124.971 87.5163 126.808 88.083 128.702 88.2322C129.797 88.4552 130.913 88.5559 132.029 88.5323C132.328 88.5232 132.62 88.4432 132.882 88.299C133.144 88.1547 133.368 87.9503 133.535 87.7026H133.545ZM114.58 128.681C113.427 128.315 112.308 127.85 111.235 127.291C111.542 126.156 111.634 124.973 111.506 123.804C112.718 124.229 113.949 124.597 115.198 124.919C114.556 127.924 114.492 127.98 114.58 128.681ZM116.654 76.6297C117.231 74.6041 120.451 76.2637 120.61 77.8382C120.599 78.2817 120.693 78.7215 120.883 79.1222C121.152 79.5042 121.387 79.4191 121.973 80.1173C122.432 80.663 123.257 81.6469 123.505 80.9792C123.741 80.0187 123.653 79.0073 123.257 78.1014C123.293 77.3566 123.58 76.6458 124.07 76.084C125.29 74.2462 124.033 71.8853 125.269 70.1374C126.627 68.4201 127.751 68.916 129.567 67.2821C129.873 67.0021 130.096 66.6439 130.214 66.2463C130.331 65.8486 130.337 65.4265 130.232 65.0255C131.472 65.7145 132.61 66.5735 133.612 67.5775C133.678 67.6802 133.742 67.7845 133.805 67.8888H133.784C133.297 67.9578 132.856 68.2126 132.553 68.5998C132.153 69.1102 132.874 69.8838 133.355 69.5356C133.523 69.3801 133.727 69.2697 133.949 69.2146C134.143 69.171 134.345 69.1793 134.535 69.2386H134.552C134.75 69.627 134.943 70.0187 135.116 70.4199C135.007 70.2898 134.867 70.1896 134.709 70.1289C134.551 70.0682 134.379 70.049 134.212 70.0731C134.044 70.0972 133.885 70.1639 133.75 70.2667C133.616 70.3696 133.509 70.5052 133.442 70.6607C133.345 71.0633 133.367 71.4856 133.505 71.876C133.644 72.2664 133.893 72.6081 134.222 72.8595C134.364 72.9876 134.542 73.0682 134.732 73.0898C134.922 73.1114 135.113 73.0731 135.28 72.9802C135.447 72.8872 135.581 72.7443 135.663 72.5716C135.744 72.3988 135.77 72.2049 135.735 72.0169C136.791 75.1145 137.352 79.0195 135.747 81.7737C135.394 82.3934 134.913 82.9302 134.336 83.3478C133.758 83.7653 133.097 84.0539 132.399 84.194C132.299 84.22 132.205 84.2659 132.124 84.329C132.042 84.392 131.975 84.4709 131.924 84.5608C131.874 84.6508 131.843 84.75 131.832 84.8524C131.821 84.9549 131.831 85.0585 131.861 85.157C132.153 86.0141 132.342 86.4908 132.503 86.9691C132.214 87.2291 131.262 87.144 130.737 87.0959C128.053 87.0468 125.421 86.3391 123.074 85.035C122.839 84.9034 122.979 85.218 122.709 84.2438C122.556 83.4975 122.342 82.7652 122.067 82.0546C121.981 81.8684 121.664 80.8508 120.944 81.3034C120.31 81.3963 119.664 81.2875 119.096 80.9926C118.528 80.6976 118.067 80.2313 117.779 79.6599C117.377 79.271 117.067 78.7969 116.872 78.2725C116.677 77.7481 116.603 77.1867 116.654 76.6297ZM119.438 91.5979C118.73 98.4489 117.025 105.16 114.376 111.518C114.606 103.634 114.135 100.047 114.193 96.912C116.548 95.8642 118.421 93.9665 119.438 91.5979ZM47.4235 69.3221C46.2648 68.7097 45.0276 68.2593 43.7464 67.9835C43.2722 67.8968 42.8073 67.7651 42.3581 67.5903C43.0715 67.5353 43.789 67.6115 44.4751 67.815C44.6058 67.8425 44.7415 67.8327 44.8669 67.7867C44.9923 67.7408 45.1022 67.6605 45.1842 67.5551C45.2662 67.4497 45.3169 67.3234 45.3306 67.1906C45.3442 67.0577 45.3203 66.9237 45.2615 66.8038C45.2466 66.6975 45.2015 66.5978 45.1315 66.5164C45.0615 66.435 44.9696 66.3755 44.8667 66.3448C44.5219 66.2411 44.17 66.1628 43.8138 66.1105L42.2217 65.5808C42.5755 65.5326 42.9356 65.5633 43.2761 65.6707C43.86 65.782 44.4355 65.9338 44.9983 66.1249C45.9372 66.4459 46.1667 64.9469 45.4541 64.6917C44.8753 64.5287 44.3267 64.2729 43.8299 63.9341C44.8678 64.0535 45.8515 64.4617 46.6691 65.1122C46.7739 65.2508 46.9263 65.3456 47.0969 65.3785C47.2675 65.4114 47.4442 65.3799 47.593 65.2902C47.7418 65.2004 47.852 65.0588 47.9025 64.8925C47.953 64.7263 47.9402 64.5472 47.8664 64.3899C47.6096 63.7814 47.3977 63.1548 47.2325 62.5153C47.9375 63.3634 48.5358 64.2949 49.014 65.2887L48.0895 67.6962C47.8216 68.2182 47.5988 68.7622 47.4235 69.3221ZM109.998 120.351C109.612 121.01 108.895 122.666 108.277 122.801C107.605 122.948 105.683 121.801 104.876 121.419C100.046 119.097 95.494 116.236 91.3058 112.893C90.7151 112.492 90.5931 112.328 90.5659 112.394C92.5513 109.041 94.3204 105.565 95.8624 101.987C95.986 102.053 96.1079 102.125 96.2331 102.189C96.3997 102.274 96.593 102.289 96.7709 102.232C96.9488 102.175 97.097 102.05 97.1833 101.884C97.2691 101.723 97.2875 101.535 97.2346 101.36C97.1816 101.186 97.0616 101.04 96.9008 100.953C79.4063 91.5834 67.1072 84.1635 50.4296 73.4839C48.9241 72.5209 48.104 71.8708 48.5951 70.4344C49.1057 68.7104 49.7646 67.0338 50.5644 65.4235C50.7249 65.4508 67.7219 70.2081 69.6206 70.7618C83.6307 74.7454 92.4116 77.6761 101.239 80.6309C100.556 81.0231 99.9743 81.5696 99.5401 82.2267C99.1059 82.8838 98.8314 83.6334 98.7385 84.4155C98.6519 86.3527 100.557 88.5709 99.22 90.2256C98.3132 91.3748 96.331 91.1886 95.1273 92.1516C94.7484 92.554 94.4692 93.0397 94.3123 93.5696C94.1553 94.0995 94.125 94.6589 94.2237 95.2027C94.3223 95.7465 94.5473 96.2596 94.8804 96.7006C95.2135 97.1416 95.6455 97.4982 96.1416 97.7418C96.1629 97.7591 96.1902 97.7671 96.2174 97.7643C96.2447 97.7614 96.2696 97.7479 96.2869 97.7266C96.3041 97.7053 96.3122 97.678 96.3093 97.6508C96.3065 97.6236 96.2929 97.5986 96.2716 97.5813C95.6826 96.912 96.2716 95.7372 97.1159 95.4403C98.0384 95.2456 98.9991 95.3513 99.8572 95.742C103.005 96.9524 106.327 97.6477 109.696 97.8012C110.761 97.8351 111.824 97.6991 112.846 97.3983C112.826 102.363 113.458 107.189 112.92 114.772C111.986 116.745 111.006 118.631 109.998 120.351ZM107.123 136.703C108.909 136.985 110.739 136.659 112.318 135.777C113.897 134.896 115.134 133.51 115.832 131.842C115.924 131.655 116.085 131.511 116.281 131.441C116.476 131.371 116.692 131.379 116.882 131.465C117.071 131.55 117.22 131.706 117.297 131.9C117.374 132.093 117.373 132.309 117.294 132.501C116.452 134.468 114.985 136.102 113.12 137.151C111.255 138.2 109.097 138.604 106.979 138.302C106.873 138.292 106.771 138.262 106.677 138.213C106.583 138.164 106.5 138.097 106.432 138.016C106.364 137.934 106.313 137.841 106.282 137.74C106.25 137.639 106.239 137.532 106.248 137.427C106.258 137.322 106.288 137.219 106.337 137.125C106.386 137.032 106.453 136.949 106.534 136.881C106.616 136.813 106.709 136.762 106.81 136.73C106.911 136.699 107.018 136.687 107.123 136.697V136.703ZM61.5812 149.423C60.6808 146.98 60.6182 147.115 60.6182 146.925C61.4431 146.593 102.838 137.145 104.626 136.755C96.1047 151.67 93.0006 170.54 90.9045 187.614C90.0202 187.249 77.498 182.171 72.0377 179.99C69.0043 169.909 65.5423 160.167 61.5812 149.423ZM25.9999 163.845C26.6419 164.07 96.3166 191.318 98.623 192.512C100.748 194.438 121.932 244.282 137.239 271.639C135.431 270.587 133.554 269.658 131.622 268.856C127.158 266.699 76.6762 243.901 74.8465 242.946C73.8787 242.354 42.7449 187.908 25.9999 163.845ZM221.253 230.949C224.268 231.491 227.057 232.905 229.278 235.014C230.247 235.981 230.856 237.25 231.004 238.61C231.152 239.971 230.83 241.341 230.092 242.494C228.434 244.68 226.216 246.376 223.672 247.403C209.143 253.444 199.577 254.411 186.319 262.537C181.858 265.311 178.015 268.973 175.029 273.295C172.043 277.617 169.977 282.506 168.96 287.66C168.884 288.286 168.748 288.903 168.554 289.502C168.366 289.888 168.081 290.218 167.728 290.462C167.374 290.706 166.964 290.855 166.537 290.896C154.653 293.643 142.49 294.999 130.293 294.934C115.076 294.737 100.018 291.813 85.8343 286.299V286.278L85.8231 286.235C82.1316 273.188 69.5307 265.662 60.3758 261.136C52.8323 257.41 49.0525 256.499 45.1556 252.692C44.2639 251.812 43.6186 250.714 43.284 249.508C42.9494 248.301 42.9373 247.027 43.2489 245.814C44.2351 243.278 46.1396 241.205 48.5839 240.009C54.1869 236.799 62.029 236.006 69.6607 237.762C70.4071 239.017 71.1566 240.279 71.9077 241.494C72.3547 242.372 72.9048 243.194 73.5464 243.943C74.0246 244.302 74.5515 244.592 75.1113 244.803C132.557 270.905 132.126 270.546 137.936 273.841C139.144 274.526 139.515 275.21 140.952 274.306C143.414 272.759 152.607 266.466 195.928 242.824C203.462 238.714 202.807 239.149 204.819 237.953C204.743 238.088 204.657 238.216 204.561 238.338C204.169 239.028 204.75 239.68 205.434 238.98L205.458 238.993C206.463 237.778 207.399 236.509 208.264 235.191C208.327 235.155 208.381 235.106 208.424 235.048C208.492 234.955 210.519 232.159 211.374 230.963C214.634 230.305 217.992 230.301 221.253 230.949ZM254.156 160.881C238.284 184.787 226.745 206.222 211.783 227.97C241.052 158.234 240.298 159.876 243.688 153.618C256.528 159.515 255.279 158.87 255.441 159.019C255.083 159.685 254.653 160.31 254.159 160.883L254.156 160.881Z" fill="#0E4C25"/>
</svg>
