<svg width="30" height="30" viewBox="0 0 30 30" fill="none" xmlns="http://www.w3.org/2000/svg">
<path d="M28.32 1.6485C27.2205 0.549 25.8975 0 24.3495 0L5.619 0C4.071 0 2.748 0.549 1.6485 1.6485C0.549 2.748 0 4.071 0 5.619L0 24.3495C0 25.8975 0.549 27.2205 1.6485 28.32C2.748 29.4195 4.071 29.9685 5.619 29.9685H9.99C10.275 29.9685 10.4895 29.958 10.6335 29.9385C10.801 29.9049 10.9523 29.8156 11.0625 29.685C11.205 29.535 11.277 29.3175 11.277 29.0325L11.2665 27.705C11.2605 26.859 11.2575 26.19 11.2575 25.695L10.8075 25.773C10.5225 25.8255 10.1625 25.848 9.726 25.842C9.27103 25.8336 8.81751 25.7879 8.37 25.7055C7.8936 25.6175 7.44514 25.417 7.062 25.1205C6.66074 24.8169 6.36146 24.3984 6.204 23.9205L6.009 23.4705C5.84464 23.1155 5.63816 22.7816 5.394 22.476C5.115 22.1115 4.8315 21.8655 4.545 21.735L4.41 21.6375C4.31586 21.5701 4.23024 21.4915 4.155 21.4035C4.08314 21.3218 4.02398 21.2298 3.9795 21.1305C3.9405 21.039 3.9735 20.964 4.077 20.9055C4.182 20.8455 4.3695 20.817 4.644 20.817L5.034 20.877C5.2935 20.928 5.616 21.084 5.9985 21.3435C6.38559 21.6074 6.70894 21.9543 6.945 22.359C7.245 22.8915 7.605 23.298 8.028 23.5785C8.451 23.8575 8.877 23.9985 9.306 23.9985C9.735 23.9985 10.1055 23.9655 10.419 23.901C10.7222 23.8383 11.0168 23.7396 11.2965 23.607C11.4135 22.737 11.7315 22.065 12.252 21.597C11.5776 21.5309 10.9091 21.4135 10.2525 21.246C9.61169 21.07 8.99541 20.8145 8.418 20.4855C7.81387 20.1566 7.28026 19.7122 6.8475 19.1775C6.432 18.657 6.09 17.9745 5.823 17.13C5.5575 16.284 5.424 15.3075 5.424 14.202C5.424 12.6285 5.937 11.289 6.9645 10.182C6.4845 9 6.5295 7.6725 7.101 6.204C7.479 6.0855 8.0385 6.174 8.7795 6.4665C9.5205 6.759 10.0635 7.0095 10.4085 7.2165C10.7535 7.4265 11.0295 7.602 11.238 7.7445C12.4575 7.40513 13.7177 7.23454 14.9835 7.2375C16.272 7.2375 17.52 7.407 18.7305 7.7445L19.4715 7.2765C20.0415 6.93428 20.6427 6.64699 21.267 6.4185C21.957 6.1575 22.482 6.087 22.848 6.204C23.433 7.674 23.484 9 23.0025 10.1835C24.03 11.289 24.5445 12.6285 24.5445 14.2035C24.5445 15.309 24.411 16.2885 24.144 17.139C23.8785 17.991 23.5335 18.6735 23.1105 19.188C22.6701 19.7158 22.1343 20.156 21.531 20.4855C20.901 20.8365 20.289 21.09 19.6965 21.246C19.0399 21.4141 18.3715 21.5319 17.697 21.5985C18.372 22.1835 18.711 23.106 18.711 24.3675V29.0325C18.711 29.253 18.7425 29.4315 18.8085 29.568C18.8388 29.6338 18.8821 29.6928 18.9357 29.7415C18.9893 29.7902 19.0521 29.8276 19.1205 29.8515C19.2645 29.9025 19.3905 29.9355 19.5015 29.9475C19.6125 29.9625 19.7715 29.967 19.9785 29.967H24.3495C25.8975 29.967 27.2205 29.418 28.32 28.3185C29.418 27.2205 29.9685 25.896 29.9685 24.348V5.619C29.9685 4.071 29.4195 2.748 28.32 1.6485Z" fill="#404040"/>
</svg>
