<svg width="30" height="30" viewBox="0 0 30 30" fill="none" xmlns="http://www.w3.org/2000/svg">
<path d="M8.81357 7.04483C8.32542 6.55667 7.53396 6.55667 7.0458 7.04483C6.55765 7.53298 6.55765 8.32444 7.0458 8.81259L13.233 14.9998L7.0458 21.187C6.55765 21.6751 6.55765 22.4666 7.0458 22.9547C7.53396 23.4429 8.32542 23.4429 8.81357 22.9547L15.0008 16.7675L21.1879 22.9547C21.6761 23.4429 22.4676 23.4429 22.9557 22.9547C23.4439 22.4666 23.4439 21.6751 22.9557 21.187L16.7685 14.9998L22.9557 8.81259C23.4439 8.32444 23.4439 7.53298 22.9557 7.04483C22.4676 6.55667 21.6761 6.55667 21.1879 7.04483L15.0008 13.232L8.81357 7.04483Z" fill="black"/>
</svg>
