<svg width="20" height="20" viewBox="0 0 20 20" fill="none" xmlns="http://www.w3.org/2000/svg">
<path d="M9.935 3.9917C13.9136 2.63538 15.9028 1.95722 16.9728 3.02718C18.0427 4.09714 17.3646 6.08643 16.0083 10.065L15.0847 12.7743C14.0431 15.8298 13.5222 17.3576 12.6637 17.484C12.4329 17.518 12.194 17.4976 11.9656 17.4243C11.1162 17.1516 10.6672 15.5408 9.76925 12.3192C9.57008 11.6046 9.4705 11.2473 9.24366 10.9743C9.17783 10.8952 9.10483 10.8222 9.02566 10.7563C8.75275 10.5295 8.39541 10.4299 7.68087 10.2308C4.45926 9.33275 2.84845 8.88375 2.57575 8.03439C2.50243 7.80603 2.48197 7.56711 2.51596 7.33629C2.6424 6.47777 4.17016 5.95695 7.22566 4.91532L9.935 3.9917Z" stroke="#272727" stroke-width="1.25"/>
</svg>
