<svg width="21" height="20" viewBox="0 0 21 20" fill="none" xmlns="http://www.w3.org/2000/svg">
<path d="M10.435 3.9917C14.4136 2.63538 16.4028 1.95722 17.4728 3.02718C18.5427 4.09714 17.8646 6.08643 16.5083 10.065L15.5847 12.7743C14.5431 15.8298 14.0222 17.3576 13.1637 17.484C12.9329 17.518 12.694 17.4976 12.4656 17.4243C11.6162 17.1516 11.1672 15.5408 10.2692 12.3192C10.0701 11.6046 9.9705 11.2473 9.74366 10.9743C9.67783 10.8952 9.60483 10.8222 9.52566 10.7563C9.25275 10.5295 8.89541 10.4299 8.18087 10.2308C4.95926 9.33275 3.34845 8.88375 3.07575 8.03439C3.00243 7.80603 2.98197 7.56711 3.01596 7.33629C3.1424 6.47777 4.67016 5.95695 7.72566 4.91532L10.435 3.9917Z" stroke="#272727" stroke-width="1.25"/>
</svg>
