<svg width="30" height="30" viewBox="0 0 30 30" fill="none" xmlns="http://www.w3.org/2000/svg">
<g clip-path="url(#clip0_434_1162)">
<path d="M26.0743 0.505859H3.92588C2.03732 0.505859 0.506348 2.03684 0.506348 3.92539V26.0715C0.506348 27.96 2.03732 29.491 3.92588 29.491H26.0743C27.9629 29.491 29.4938 27.96 29.4938 26.0715V3.92539C29.4938 2.03684 27.9629 0.505859 26.0743 0.505859Z" fill="url(#paint0_linear_434_1162)"/>
<path d="M12.3353 14.1283C12.3353 14.1283 14.7962 13.9455 14.7962 11.0604C14.7962 8.17519 12.7829 6.7666 10.2329 6.7666H1.84229V22.8916H10.2329C10.2329 22.8916 15.354 23.0533 15.354 18.1314C15.354 18.1314 15.579 14.1283 12.3353 14.1283ZM5.53838 9.63301H10.2259C10.2259 9.63301 11.3673 9.63301 11.3673 11.3111C11.3673 12.9893 10.697 13.233 9.93525 13.233H5.54072L5.53838 9.63301ZM10.0149 20.0252H5.54072V15.7174H10.2282C10.2282 15.7174 11.9274 15.6939 11.9274 17.9322C11.9321 19.7955 10.6899 20.0064 10.0173 20.0252H10.0149ZM22.186 10.8705C15.9845 10.8705 15.9915 17.065 15.9915 17.065C15.9915 17.065 15.5649 23.2291 22.186 23.2291C22.186 23.2291 27.7032 23.5432 27.7032 18.9424H24.8673C24.8673 18.9424 24.961 20.6768 22.2892 20.6768C22.2892 20.6768 19.4509 20.8666 19.4509 17.8643H27.8063C27.8063 17.8643 28.7134 10.8705 22.186 10.8705ZM24.7079 15.7174H19.411C19.411 15.7174 19.7579 13.233 22.2493 13.233C24.7407 13.233 24.7079 15.7174 24.7079 15.7174ZM18.7173 7.71816H25.3688V9.70332H18.7173V7.71816Z" fill="white"/>
</g>
<defs>
<linearGradient id="paint0_linear_434_1162" x1="15.0001" y1="0.505859" x2="15.0001" y2="29.4934" gradientUnits="userSpaceOnUse">
<stop stop-color="#005CFF"/>
<stop offset="1" stop-color="#0047AD"/>
</linearGradient>
<clipPath id="clip0_434_1162">
<rect width="30" height="30" fill="white"/>
</clipPath>
</defs>
</svg>
