<svg width="18" height="18" viewBox="0 0 18 18" fill="none" xmlns="http://www.w3.org/2000/svg">
<path fill-rule="evenodd" clip-rule="evenodd" d="M9.00001 0.666656C8.60294 0.666656 8.21077 0.75432 7.8515 0.92339L2.58068 3.40377C1.41238 3.95357 0.666672 5.12863 0.666672 6.41984V12.3333C0.666672 13.1648 1.14686 13.9215 1.89919 14.2755L7.8515 17.0766C8.21077 17.2457 8.60294 17.3333 9.00001 17.3333C9.39707 17.3333 9.78924 17.2457 10.1485 17.0766L16.1008 14.2755C16.8531 13.9215 17.3333 13.1648 17.3333 12.3333V6.41984C17.3333 5.12863 16.5876 3.95357 15.4193 3.40377L10.1485 0.92339C9.78924 0.754321 9.39707 0.666656 9.00001 0.666656ZM15.6667 10.985L9.83334 8.0683V2.61706L14.7097 4.91181C15.2938 5.1867 15.6667 5.77423 15.6667 6.41984V10.985ZM9.00001 9.51502L15.4452 12.7376C15.428 12.7486 15.41 12.7586 15.3912 12.7675L9.43885 15.5686C9.30157 15.6332 9.15172 15.6667 9.00001 15.6667C8.84829 15.6667 8.69844 15.6332 8.56116 15.5686L2.60885 12.7675C2.59004 12.7586 2.57199 12.7486 2.55476 12.7376L9.00001 9.51502ZM8.16667 8.0683L2.33334 10.985V6.41984C2.33334 5.77423 2.70619 5.1867 3.29034 4.91181L8.16667 2.61706V8.0683Z" fill="#4DC479"/>
</svg>
