<svg viewBox="0 0 400 400" xmlns="http://www.w3.org/2000/svg" id="Coming-Soon-2--Streamline-Brooklyn.svg" height="400" width="400"><desc>COMING SOON 2 Streamline Illustration: https://streamlinehq.com</desc><path d="M143.694 306.718c-4.228 -2.928 -16.508 -6.154 -29 -30.14 -0.06 -0.116 -0.22 -0.178 -0.336 -0.262 -0.092 -0.2 -0.174 -0.42 -0.266 -0.634 -0.312 -0.142 -0.71 -0.2 -0.906 -0.422 -4.156 -4.782 -7.46 -6.8 -8.626 -21.336a47.456 47.456 0 0 1 3.758 -21.178c6.814 -17.488 18.986 -28.352 27.574 -37 1.32 -1.33 1.072 -2.658 -0.6 -3.57a3.222 3.222 0 0 0 -0.692 -0.304 124.414 124.414 0 0 0 -33.76 -6.04 116.94 116.94 0 0 0 -31.826 3.11 114.6 114.6 0 0 0 -26.044 9.2 19.914 19.914 0 0 0 -4.042 3.088c-3.856 3.502 -5.244 8.234 -10.154 25.868A91.262 91.262 0 0 0 25.536 254a138.446 138.446 0 0 0 3.662 32c0.7 3.918 1.02 9.518 1.048 9.83 0.308 3.466 0.7 6.91 0.942 10.374a3.2 3.2 0 0 0 2.784 3.35c2.358 0.45 108.014 0.6 111.344 0.356 -0.616 -1.204 -1.116 -2.198 -1.622 -3.192Z" fill="#0e4c25" stroke-width="1"></path><path d="M119.868 187.24a104.914 104.914 0 0 1 0.6 -12.07c0.112 -1.8 0.504 -2.106 2.22 -1.508a13.552 13.552 0 0 0 11.232 -1.058 13.148 13.148 0 0 0 7.224 -12.038c0.062 -1.676 0.174 -3.34 0.188 -5.016 0.016 -1.878 1.318 -1.912 4.92 -4.972a1.436 1.436 0 0 0 0.262 -1.266c-0.85 -2.788 -1.304 -3.162 -7.138 -13.086 -4.482 1.916 -8.658 3.706 -12.856 5.496 0.168 0.932 0.376 2.124 0.586 3.328l-0.472 0.126c-0.712 -1 -1.388 -2.012 -2.124 -3a8 8 0 0 0 -8.7 -2.952c-4.616 1.32 -6.288 6.436 -3.884 11.034a10.978 10.978 0 0 0 12.52 4.522c0.294 -0.116 0.6 -0.2 0.902 -0.314l0.2 0.304c-0.418 0.314 -0.784 0.8 -1.256 0.932a30 30 0 0 1 -4.366 0.952c-1.76 0.224 -0.612 -0.354 -7.118 13.85a3.52 3.52 0 0 1 -1.6 1.582c-5.072 2.366 -11.106 1.08 -18.834 0.114 -4.582 13 -3.79 11.108 -5.234 12.332 -0.692 -2.224 -0.94 1.434 2.45 -13.662a32.24 32.24 0 0 1 -16.238 -11.138 23.238 23.238 0 0 1 -5.704 -18.572c-2.176 -0.692 -9.572 -3.764 -10.03 -3.956a1.2 1.2 0 0 1 -0.67 -1.832c3.148 -5.898 6.114 -9.028 6.774 -13.17a44.848 44.848 0 0 1 8.71 -21.2 37.822 37.822 0 0 1 13.964 -10.384 38.686 38.686 0 0 1 19.4 -3.35 44.63 44.63 0 0 1 18.562 5.612c10.072 5.36 13.056 12.4 17.514 20.382 0.846 1.518 1.17 1.348 9.892 6.784 1.58 0.984 1.736 1.662 0.912 3.36 -3.114 6.41 -7.026 8.174 -11.736 11.504 -0.564 0.4 -0.848 0.818 -0.262 1.53 3.682 4.468 6.572 8.082 7.882 13.054a1.4 1.4 0 0 1 -0.376 1.2c-3.852 2.872 -5.262 3.252 -5.266 4.5 -0.024 8.098 0 13.128 -5.978 17.966 -0.688 0.556 -1.444 1.014 -1.946 1.36a6.036 6.036 0 0 1 0.314 1.654c-0.328 2.552 -0.672 5.108 -1.068 7.652 -0.95 6.084 -1.124 5.67 -1.528 6.8 -0.158 0.022 -0.314 0.032 -0.472 0.052a6.082 6.082 0 0 1 -0.4 -1.81 54.166 54.166 0 0 1 3.058 -14.352c-4.094 2.01 -8.166 3.182 -12.552 1.266 -0.67 3.864 -0.378 7.842 -1.926 11.474a5.63 5.63 0 0 1 -0.552 -0.016ZM151 122.314c-1.956 -1.236 -3.836 -2.482 -5.762 -3.624A12.14 12.14 0 0 1 139 111.54a14.34 14.34 0 0 0 -1.748 -3.6 37.86 37.86 0 0 0 -16.434 -14.624c-9.058 -4.256 -18.354 -5.7 -28 -2.6 -9.528 3.062 -17.496 8.268 -22.362 17.42 -7.678 14.44 -2.706 13.6 -7.276 20.978 -1.488 2.4 -2.878 4.868 -4.428 7.496 8.4 2.528 17.33 7.046 49.884 5.234a1.8 1.8 0 0 0 1.2 -0.828 9.58 9.58 0 0 1 14.636 -2.27 1.902 1.902 0 0 0 1.434 0.47 15.324 15.324 0 0 0 4.262 -0.932c8.734 -3.996 16.318 -7.418 20.832 -15.97Zm-69.238 38.24a22.91 22.91 0 0 0 -1.854 -2.12c-6.024 -5.35 -6.048 -9.572 -7.62 -14.686 -0.138 -0.45 -0.722 -0.764 -1.088 -1.132 -0.7 0.828 -1.426 1.158 -0.974 2.734 1.736 6.044 2.486 10.924 7.662 14.436a4.368 4.368 0 0 0 3.874 0.768Z" fill="#191919" stroke-width="1"></path><path d="M304.554 138.288c-3.692 -3.546 -3.19 -3.4 -4.8 -3.696a1.518 1.518 0 0 1 -1.1 -2.312 3.896 3.896 0 0 1 3.298 -2.21 6.456 6.456 0 0 1 5.822 2.074c0.364 0.366 0.816 0.67 1.444 1.172l3.35 -3.444c-3.77 -6.182 -9 -4.77 -11.8 -5.412a5.63 5.63 0 0 1 -3.674 -5c-0.088 -1.068 -0.45 -1.256 -1.4 -0.692a8.512 8.512 0 0 0 -1.016 0.722 2.4 2.4 0 0 1 -3.16 -0.188c-3.288 -3.15 -6.548 -6.318 -9.862 -9.422 -1.244 -1.164 -1.132 -2.464 0.388 -3.234 1.056 -0.536 2.092 -1.102 3.14 -1.654 0.68 -0.358 0.754 -0.672 0.24 -1.382 -10.688 -14.788 -10.688 -14.86 -11.284 -16.8a6.838 6.838 0 0 1 1.622 1.078 181.556 181.556 0 0 1 11.4 14.6c0.44 0.6 0.89 1.108 1.696 0.346a5.4 5.4 0 0 1 1.434 -0.724c-12.642 -18.228 -10.9 -15.734 -11.148 -17.346 1.35 0.778 -0.642 -1.678 11.578 14.918 1.238 1.682 1 1.448 3.538 0.178q-0.956 -6.58 -1.894 -13.106l0.524 -0.094c1.82 3.894 1.664 8.27 2.742 12.498 1.246 -0.754 2.484 -1.452 3.654 -2.26 0.696 -0.482 -0.028 -3.178 -0.4 -8.972 -0.108 -1.644 -0.022 -3.298 -0.022 -4.952 0.136 -0.032 0.272 -0.074 0.4 -0.104a11.1 11.1 0 0 1 0.514 1.78c0.534 4.462 1.068 10.168 1.35 11.294 2.334 -1.318 3.858 0.148 4.46 2.828 2.66 11.85 4.218 11.94 1.748 13.358a13.452 13.452 0 0 0 -3.152 1.926 3 3 0 0 0 -0.094 2.448c0.97 2.926 4.27 2.926 10.322 5.486a11.11 11.11 0 0 1 5.988 14.898c-0.082 0.178 -0.156 0.366 -0.262 0.6 4.052 3.78 55.692 51.906 58.322 54.458a1.776 1.776 0 0 1 0.104 1.748c-1.884 2.042 -3.926 3.948 -5.842 5.968 -16.43 17.324 -13.782 14.89 -17.6 19.032a1.262 1.262 0 0 1 -2.022 -0.106c-7.554 -7.754 -34 -33.234 -64.11 -62.8 -1.516 -1.49 -1.444 -1.436 0.138 -2.858 2.744 -2.462 11.516 -11.548 15.426 -14.642Zm-14 16.248 63.922 61.848c3.79 -4.356 17.848 -20.298 21.2 -24.068 -19 -17.88 -37.832 -35.6 -56.698 -53.368a11.88 11.88 0 0 1 -6.888 3.36 8.972 8.972 0 0 1 -6.458 -2.324c-9.146 8.646 -7.656 6.874 -15.074 14.552Zm11.54 -39.336c-3.646 1.94 -4.116 2.288 -2.878 5.48a2.912 2.912 0 0 0 3.098 2.2 13.754 13.754 0 0 1 2.252 0.156 11.6 11.6 0 0 1 8.8 4.92 4.456 4.456 0 0 1 -3.528 7.37c-0.692 0.066 -0.372 -0.026 -3.2 2.826a7.572 7.572 0 0 0 8.124 0.848 8.282 8.282 0 0 0 3.506 -11.2c-2.532 -3.8 -4.656 -4.184 -10.52 -6.2 -3.062 -1.056 -5.57 -2.6 -5.654 -6.4Zm-0.732 17.358c1.434 1.36 2.878 2.736 4.386 4.172 0.544 -0.6 1.256 -1.4 2.052 -2.252 -2.094 -0.968 -3.758 -3.444 -6.438 -1.926Z" fill="#191919" stroke-width="1"></path><path d="M274.656 236.138c4.102 -0.436 85.36 -1.06 89.58 -1.078 5.224 -0.022 10.458 0.234 15.672 0.534 3.936 0.226 6.91 -1.78 7.328 -5.35a63.63 63.63 0 0 0 0.732 -14.77c0.012 -25.816 0.074 -84.546 0.074 -88.188 -21.24 -0.242 -42.544 -0.106 -63.828 -1.32 21.272 -1.056 42.546 -1.246 64 -1.214a112.216 112.216 0 0 0 -0.586 -14.268 5.4 5.4 0 0 0 -4.052 -4.784 27.544 27.544 0 0 0 -6.04 -0.922c-72.944 -0.778 -67.778 -0.558 -67.848 -1.256a6.316 6.316 0 0 1 1.142 -0.24c4.68 -0.128 9.37 -0.292 14.048 -0.326 60.108 -0.422 56.776 -0.5 59.158 0.252 6.024 1.902 5.4 6.116 5.454 11.714 0.12 12.51 0.284 97.484 0.096 106.936a97.304 97.304 0 0 1 -0.618 9.842 12.84 12.84 0 0 1 -1.644 3.956c-0.134 0.264 -0.69 0.378 -1.068 0.45 -3.28 0.628 -3.47 1.102 -16.426 1.174 -16.98 0.094 -94.844 -0.576 -95.212 -0.576 0.006 -0.178 0.028 -0.378 0.038 -0.566Z" fill="#191919" stroke-width="1"></path><path d="M143.694 306.718a4.718 4.718 0 0 0 -0.8 -0.576 50.312 50.312 0 0 1 -14.426 -10 69.674 69.674 0 0 1 -13.8 -19.544c-0.054 -0.114 -0.22 -0.178 -0.334 -0.262 -0.094 -0.22 -5.272 -14.276 -4.576 -27.47a7.516 7.516 0 0 1 0.284 -1.224c0.136 0 0.282 -0.012 0.418 -0.012 0.73 4.074 0.772 12.382 4.166 22.634a50.844 50.844 0 0 0 17.8 24.35c3.894 3.026 8.056 5.684 12.048 8.6a4.516 4.516 0 0 0 0.6 0.262 92.646 92.646 0 0 1 15 -37.666c7.476 -11.504 16.1 -22 27.678 -30.118a92.26 92.26 0 0 0 -49.924 -41.4l0.188 -0.388a19.268 19.268 0 0 1 3.644 0.628c10.054 3.752 11.694 4.036 22.81 11.8a90.132 90.132 0 0 1 7.622 6.146 47.18 47.18 0 0 1 4.04 4.292 99.434 99.434 0 0 1 10.93 13.86c0.976 1.432 1.788 2.974 2.71 4.438 0.972 1.54 0.734 2.62 -0.972 3.706 -1.862 1.186 -1.456 1.32 -0.6 2.702 10.6 17.048 12.564 19.026 15.62 23.522a8.322 8.322 0 0 1 0.712 2.292c-0.168 0.094 -0.346 0.2 -0.514 0.294a10.456 10.456 0 0 1 -1.496 -1.362c-11.478 -15.302 -9.714 -12.85 -17.2 -23.638 -0.378 -0.542 -0.722 -0.742 -1.288 -0.2 -4.644 4.456 -12.482 10.246 -24.78 30.494 -2.096 3.454 -3.84 7.12 -5.664 10.732a58.094 58.094 0 0 0 -5.118 15.096c-1.312 6.69 0.02 9.236 -4.188 8.08 -0.17 -0.04 -0.38 -0.036 -0.59 -0.068Z" fill="#191919" stroke-width="1"></path><path d="M201.616 255.756c8.77 -0.962 14 -0.98 34.014 -8.426a28.342 28.342 0 0 0 4.322 -2.42 35.312 35.312 0 0 1 12.218 -4c3.748 -29.8 10.106 -81.43 10.342 -81.98a1.054 1.054 0 0 1 0.87 -0.418c0.178 0 0.492 0.47 0.47 0.712 -0.2 2.314 -8.426 80.858 -8.458 81.6a42.53 42.53 0 0 0 9.768 -3.78 1.17 1.17 0 0 0 0.544 -0.764c1.304 -9.218 8.2 -67.822 9.086 -75.74 0.044 -0.386 0.712 -0.7 1.09 -1.056 0.314 0.344 0.902 0.712 0.89 1.046 -0.086 2.084 -0.334 4.166 -0.556 6.24 -8.4 78.712 -7.11 63.184 -6.91 68.234a3.47 3.47 0 0 1 -1.904 3.308c-2.326 1.254 -4.722 2.386 -7.13 3.476 -5.89 2.662 -10.668 1.376 -16.518 4.322 -4.756 2.4 -0.158 2.314 -15.118 7.286a62.478 62.478 0 0 1 -23.052 3.77 19.302 19.302 0 0 1 -3.098 -0.544 3.514 3.514 0 0 1 -0.942 -0.576c0.032 -0.102 0.056 -0.196 0.072 -0.29Z" fill="#191919" stroke-width="1"></path><path d="M150.552 306.508c0.784 0.168 1.38 0.128 1.726 0.4a27.108 27.108 0 0 0 10.752 4.166c9.474 2.306 22.508 3.472 31.552 -0.156 6.414 -2.574 5.916 -1.18 23.156 -10.25 21.756 -11.444 37.43 -31.222 37.636 -31.436 1.468 -1.538 3.118 -2.902 4.71 -4.334 8.132 -7.314 7.936 -9.426 11.766 -16.248 0.178 -0.314 0.702 -0.44 1.068 -0.648 0.116 0.366 0.4 0.774 0.326 1.098a26.322 26.322 0 0 1 -4.586 9.81 39.164 39.164 0 0 1 -5.014 6.166c-8.2 7.428 -16.84 25.772 -51.098 43.172 -1.282 0.65 -11.3 4.922 -14.102 5.872a75.496 75.496 0 0 1 -8.426 2.2 54.892 54.892 0 0 1 -17.724 0.156 51.612 51.612 0 0 1 -13.786 -3.8 18.186 18.186 0 0 1 -7.956 -6.168Z" fill="#191919" stroke-width="1"></path><path d="M237.22 197.728c-0.016 -5.564 0 -4.87 -0.114 -5.276 -1.614 -4.252 -4.53 -2.758 -11.286 -3.14 -1.482 -0.084 -16.772 -1.48 -24.046 -1.926 -6.972 -0.428 -31.312 -1.434 -35.018 -1.498 -3.736 -0.062 -5.232 1.236 -5.778 5 -1.186 8.168 -0.336 10.538 -2.732 9.852 0 -6.774 -0.23 -6.21 0.742 -11.38a6.146 6.146 0 0 1 5.968 -5.234 465.966 465.966 0 0 1 59.084 2.492c3.58 0.346 7.13 0.954 10.69 1.486a4.9 4.9 0 0 1 4.6 5c0.354 6.674 -0.522 11.2 -1.708 22.548 -1.062 10.184 -2.132 22.4 -2.354 23.764a4.644 4.644 0 0 1 -5.078 3.968c-26.758 -0.456 -22.114 -0.308 -32.682 -1.634 -6.936 -0.87 -5.034 -0.472 -7.538 -1.528 0.272 -1.366 -2.634 0.028 40.032 0.6a3.61 3.61 0 0 0 3.56 -2.618 91.892 91.892 0 0 0 1.538 -13.4c0.24 -2.736 2.124 -26.132 2.12 -27.076Z" fill="#191919" stroke-width="1"></path><path d="M203.648 104.936a15.928 15.928 0 0 0 -4.2 0.324 5.132 5.132 0 0 0 -3.872 4.54c-2.846 18.096 1.134 34.55 -1.2 55.232a14.374 14.374 0 0 1 -0.366 1.634h-0.4c-0.168 -1.4 -0.44 -2.8 -0.482 -4.2 -1.526 -50.552 -1.512 -55.774 3.1 -58.102a11.496 11.496 0 0 1 4.94 -1.162c13.012 -0.088 63.556 -0.028 75.814 0.054a34.752 34.752 0 0 1 3.884 0.47c0.108 1.248 4.05 1.086 -77.218 1.21Z" fill="#191919" stroke-width="1"></path><path d="M146.4 152.756c5.852 3.214 11.502 8.2 30.788 12.814a121.178 121.178 0 0 0 51.338 1.642c11.188 -2.256 19.45 -4.454 30.328 -6.698 0.062 0.136 0.114 0.272 0.178 0.4a13.222 13.222 0 0 1 -2.366 1.488 90.75 90.75 0 0 1 -16.154 4.982c-12.294 2.894 -7 1.65 -12.488 2.472a88.104 88.104 0 0 1 -14.698 1.57c-21.942 -0.042 -26.6 -0.88 -38.536 -4.062 -15.704 -4.186 -21.31 -8.288 -26.286 -11.756a17.218 17.218 0 0 1 -2.4 -2.514 2.96 2.96 0 0 0 0.296 -0.338Z" fill="#191919" stroke-width="1"></path><path d="M27.106 292.836a5.774 5.774 0 0 1 -1.32 -0.858c-1.976 -2.244 -4.05 -4.42 -5.8 -6.836 -18.086 -24.986 -10 -59.84 12.438 -80.086 0.708 -0.638 0.34 -0.538 1.916 -0.616 -0.466 2.036 1.212 -1.284 -8.784 12.426C13.412 233.52 8.298 253.4 16.2 272.882a86.264 86.264 0 0 0 11.232 19.472c-0.096 0.158 -0.212 0.326 -0.326 0.482Z" fill="#191919" stroke-width="1"></path><path d="M296.378 126.238c-2.344 0.136 -4.7 0.42 -7.044 0.388 -12.416 -0.172 -24.832 -0.554 -37.248 -0.628 -12.218 -0.074 -12.4 0.528 -51.16 0.482a22.86 22.86 0 0 1 -3.852 -0.462 4.084 4.084 0 0 1 -1.172 -0.638 2.43 2.43 0 0 1 1.266 -0.628c5.264 -0.106 10.532 -0.054 15.8 -0.2 41.626 -1.15 24.448 -1.758 74.182 0.178 2.418 0.094 4.826 0.414 7.244 0.67 0.68 0.072 1.34 0.25 2 0.386 0.006 0.16 0.006 0.306 -0.016 0.452Z" fill="#191919" stroke-width="1"></path><path d="M218.828 203.11a0.624 0.624 0 0 1 0.586 0.66c-0.152 1.956 -0.2 3.286 -0.462 5.264 -1.166 8.87 0.02 10.568 -1.832 10.428 -10.916 -0.826 -9.256 -0.6 -11.032 -0.744 -2.144 -0.178 -5.902 -0.654 -8.93 -0.8 -1.686 -0.084 -3.372 -0.068 -5.046 -0.21 -4.088 -0.344 -8.434 -0.938 -12.93 -1.2 -1.518 -0.086 -1.8 -0.4 -1.6 -1.938 1.346 -10.8 1.4 -11.074 1.412 -12.2 0.034 -1.778 0.032 -1.82 1.864 -1.706 6.144 0.388 34.242 2.094 36.65 2.23 0.408 0.006 0.786 0.17 1.32 0.216Zm-1.55 6.636c0.074 -1.496 0.134 -3 0.22 -4.6a0.618 0.618 0 0 0 -0.586 -0.65c-35.962 -1.522 -36.21 -2.678 -36.264 -1.34 -0.134 3.342 -0.47 10.626 -0.47 10.626a0.624 0.624 0 0 0 0.564 0.618c11.768 1.068 23.486 1.868 35.342 2.888a0.622 0.622 0 0 0 0.67 -0.576Z" fill="#191919" stroke-width="1"></path><path d="M233.484 198.388c-17.2 0 -14.824 -0.386 -21.052 -1.078 -1.216 -0.134 -2.44 -0.096 -3.654 -0.2 -2.8 -0.238 -6.576 -0.726 -9.924 -0.828 -39.036 -1.19 -36.098 -0.708 -36.264 -1.538a9.474 9.474 0 0 1 2.2 -0.576c25.248 -0.358 26.952 -0.306 34.432 0.22 16.134 1.132 24.444 2.048 33.312 3.328a4.544 4.544 0 0 1 1 0.378 1.262 1.262 0 0 0 -0.05 0.294Z" fill="#191919" stroke-width="1"></path><path d="M182.4 220.676c4.49 -1.308 27.668 -0.252 31.2 1.518a10.176 10.176 0 0 1 -1.686 0.324c-3 0 -6.01 0.064 -9 -0.084 -2.304 -0.114 -4.6 -0.614 -6.9 -0.752 -6.882 -0.416 -10.222 -0.27 -13.662 -0.67 0.014 -0.116 0.034 -0.212 0.048 -0.336Z" fill="#191919" stroke-width="1"></path><path d="M209.102 226.162a14.548 14.548 0 0 1 -6.898 0.44c-0.242 -0.024 -0.482 -0.14 -0.724 -0.158 -16.874 -1.224 -11.27 -0.236 -15.534 -1.496 2.254 -1.038 22.11 0.094 23.156 1.214Z" fill="#191919" stroke-width="1"></path><path d="M238.048 115.728a3.2 3.2 0 0 1 -6.4 0.168 3.374 3.374 0 0 1 3.288 -3.33 3.482 3.482 0 0 1 3.112 3.162Z" fill="#191919" stroke-width="1"></path><path d="M210.934 118.68a3.2 3.2 0 0 1 -2.962 -3.14 3.286 3.286 0 0 1 3.16 -3 3.07 3.07 0 1 1 -0.198 6.14Z" fill="#191919" stroke-width="1"></path><path d="M226.02 115.582a3.664 3.664 0 0 1 -3.016 3.108 3.444 3.444 0 0 1 -3.172 -3.38 3.108 3.108 0 0 1 6.188 0.272Z" fill="#191919" stroke-width="1"></path><path d="M276.552 158.828a10.428 10.428 0 0 0 -5.77 -2.754 9.06 9.06 0 0 0 -5.348 0.324c-0.262 0.128 -0.6 0.23 -0.722 0.44 -0.256 0.47 -0.546 0.882 -0.964 0.336a1.418 1.418 0 0 1 -0.094 -1.32 5.528 5.528 0 0 1 4.376 -2.062 10.132 10.132 0 0 1 8.5 3.13 1.278 1.278 0 0 1 0.022 1.906Z" fill="#191919" stroke-width="1"></path><path d="M272.468 242.838a15.82 15.82 0 0 1 -5.8 10.354c-0.54 0.44 -0.132 0.28 -1.81 0.68a3.03 3.03 0 0 1 0.2 -1.1c2.288 -3.468 4.174 -4.73 5.2 -9.6 0.05 -0.236 0.124 -0.312 1.412 -2.04 0.264 0.554 0.53 1.13 0.798 1.706Z" fill="#191919" stroke-width="1"></path><path d="M262.618 245.968a17.074 17.074 0 0 1 1.926 -1.832 16.68 16.68 0 0 0 4.554 -5.674 4.346 4.346 0 0 1 1 -0.848 4.25 4.25 0 0 1 0.21 1.35 10.35 10.35 0 0 1 -4.508 6.836 3.14 3.14 0 0 1 -3.182 0.168Z" fill="#191919" stroke-width="1"></path><path d="M136.816 144.056c-0.8 0.072 -1.448 -0.964 -1.318 -2.072a6.4 6.4 0 0 1 0.386 -1.832c0.174 -0.4 0.68 -0.984 0.954 -0.942a1.936 1.936 0 0 1 1.12 0.942 4.244 4.244 0 0 1 0.272 1.454c-0.26 -0.006 0.394 2.288 -1.414 2.45Z" fill="#191919" stroke-width="1"></path><path d="M172.954 192.338c-1.078 0.084 -1.716 -0.284 -1.664 -1.446a1.682 1.682 0 0 1 1.684 -1.696c0.87 0.11 1.668 0.378 1.6 1.582 -0.078 1.1 -0.48 1.706 -1.62 1.56Z" fill="#191919" stroke-width="1"></path><path d="M180.23 190.076a1.864 1.864 0 0 1 -1.654 1.948c-1.11 0.108 -1.446 -0.68 -1.612 -1.446 -0.188 -0.858 0.742 -1.622 1.82 -1.706s1.236 0.68 1.446 1.204Z" fill="#191919" stroke-width="1"></path><path d="M166.83 191.846c-0.9 0.178 -1.306 -0.492 -1.4 -1.298 -0.09 -0.754 1.162 -1.864 1.98 -1.8a1.704 1.704 0 0 1 1.6 1.634c0.106 0.846 -0.81 1.464 -2.18 1.464Z" fill="#191919" stroke-width="1"></path><path d="M274.656 236.138c-0.02 0.188 -0.032 0.378 -0.052 0.576 0.02 -0.198 0.042 -0.388 0.052 -0.576Z" fill="#0e4c25" stroke-width="1"></path><path d="M365.67 203.528c-3.696 4.25 -7.4 8.49 -11.19 12.856l-63.922 -61.848c1.2 -1.236 2.346 -2.432 3.486 -3.616 3.72 -0.302 -1.352 0.658 27.27 -4.544 1.78 -0.324 2.222 -0.064 2.146 1.768 -0.38 9.362 -0.71 7.924 -0.71 22.916 0 0.8 0.23 1.426 1.286 1.444 4.46 0.082 8.92 0.23 13.38 0.314 1.644 0.032 2.112 0.42 2.136 2.032 0.078 5.726 0.188 11.442 0.23 17.168 0 1.2 0.47 1.362 1.508 1.266 20.58 -1.884 16.17 -1.082 23.354 -1.558 0.954 -0.064 1.348 0.136 1.32 1.066 -0.108 3.57 -0.2 7.156 -0.294 10.736Z" fill="#0e4c25" stroke-width="1"></path><path d="M217.278 209.746c-0.178 2.482 -0.366 4.962 -0.554 7.6 -12.27 -1 -24.362 -1.988 -36.536 -3v-1.664q3.768 -4.02 7.526 -8.04c1.4 -1.504 1.694 -0.878 4.136 2.418 1.256 1.696 2.512 3.4 3.842 5.182 1.318 -1.434 2.53 -2.746 3.748 -4.062 0.71 -0.766 1.426 -0.83 2.114 0.012 0.632 0.772 3.686 4.668 4.67 5.892 1.6 -1.73 4.648 -4.778 6.522 -6.542 1.932 -1.822 2.94 0.144 4.532 2.204Z" fill="#0e4c25" stroke-width="1"></path></svg>