<svg width="36" height="28" viewBox="0 0 36 28" fill="none" xmlns="http://www.w3.org/2000/svg">
<path d="M30.4943 2.786C28.1297 1.70299 25.6335 0.934445 23.0693 0.5C22.7181 1.12777 22.4004 1.77367 22.1175 2.435C19.385 2.02317 16.6061 2.02317 13.8735 2.435C13.5912 1.7738 13.2742 1.12791 12.924 0.5C10.3573 0.938249 7.85835 1.7082 5.49003 2.7905C0.789778 9.743 -0.483722 16.5268 0.153027 23.2115C2.90526 25.2456 5.9859 26.7928 9.26103 27.7857C9.99857 26.7932 10.6511 25.7402 11.2118 24.638C10.1469 24.2401 9.11923 23.7492 8.14053 23.171C8.39928 22.9843 8.65128 22.793 8.89428 22.6062C11.7429 23.9459 14.8521 24.6404 18 24.6404C21.148 24.6404 24.2571 23.9459 27.1058 22.6062C27.3533 22.8088 27.6053 23 27.8595 23.171C26.8786 23.7507 25.8486 24.2431 24.7815 24.6425C25.3418 25.7428 25.9943 26.7936 26.7323 27.7835C30.0103 26.7957 33.0936 25.2506 35.847 23.216C36.594 15.4625 34.569 8.74175 30.4943 2.786ZM12.0218 19.0985C10.2443 19.0985 8.77728 17.4897 8.77728 15.5075C8.77728 13.5253 10.1948 11.9008 12.015 11.9008C13.8353 11.9008 15.291 13.5253 15.2595 15.5075C15.228 17.4875 13.8285 19.1007 12.0195 19.1007L12.0218 19.0985ZM23.9805 19.0985C22.203 19.0985 20.7405 17.4897 20.7405 15.5075C20.7405 13.5253 22.158 11.9008 23.9805 11.9008C25.803 11.9008 27.2475 13.5253 27.216 15.5075C27.1845 17.4875 25.7895 19.1007 23.9805 19.1007V19.0985Z" fill="#404040"/>
</svg>
