<svg width="20" height="21" viewBox="0 0 20 21" fill="none" xmlns="http://www.w3.org/2000/svg">
<path fill-rule="evenodd" clip-rule="evenodd" d="M18.5961 1.91033C17.2495 0.563744 15.0662 0.563743 13.7196 1.91033L5.19416 10.4358C4.58217 11.0478 4.18518 11.8418 4.06279 12.6985L3.81573 14.4279C3.62717 15.7478 4.75854 16.8792 6.07847 16.6906L7.80784 16.4436C8.66463 16.3212 9.4586 15.9242 10.0706 15.3122L18.5961 6.78676C19.9426 5.44017 19.9426 3.25692 18.5961 1.91033ZM15.3433 3.15085C15.907 2.76659 16.6818 2.82448 17.1818 3.32455C17.6819 3.82461 17.7398 4.59939 17.3555 5.16307L15.3433 3.15085ZM13.9112 4.54717L15.9592 6.59518L8.65637 13.898C8.35038 14.204 7.95339 14.4025 7.525 14.4637L5.79563 14.7108L6.04269 12.9814C6.10388 12.553 6.30238 12.156 6.60837 11.85L13.9112 4.54717Z" fill="black"/>
<path d="M4 1.00035C1.79086 1.00035 0 2.79121 0 5.00035V17.0003C0 19.2095 1.79086 21.0003 4 21.0003H16C18.2091 21.0003 20 19.2095 20 17.0003V11.0003C20 10.4481 19.5523 10.0003 19 10.0003C18.4477 10.0003 18 10.4481 18 11.0003V17.0003C18 18.1049 17.1046 19.0003 16 19.0003H4C2.89543 19.0003 2 18.1049 2 17.0003V5.00035C2 3.89578 2.89543 3.00035 4 3.00035H6.68421C7.2365 3.00035 7.68421 2.55263 7.68421 2.00035C7.68421 1.44806 7.2365 1.00035 6.68421 1.00035H4Z" fill="black"/>
</svg>
