<svg width="100" height="100" viewBox="0 0 100 100" fill="none" xmlns="http://www.w3.org/2000/svg">
<path d="M49.9999 81.3268C68.8794 81.3268 84.1842 75.3229 84.1842 67.9167C84.1842 60.5104 68.8794 54.5065 49.9999 54.5065C31.1205 54.5065 15.8157 60.5104 15.8157 67.9167C15.8157 75.3229 31.1205 81.3268 49.9999 81.3268Z" fill="#F9FAFB"/>
<path d="M27.8416 59.4861C27.6379 59.1556 27.2046 59.0528 26.8731 59.2565L26.274 59.6259L25.9046 59.0269C25.7009 58.6963 25.2676 58.5935 24.9361 58.7972C24.6055 59.0009 24.5027 59.4343 24.7064 59.7657L25.0759 60.3648L25.8148 61.563L27.0129 60.8241L27.612 60.4546C27.9426 60.25 28.0453 59.8167 27.8416 59.4861Z" fill="#D0D5DD"/>
<path d="M29.2675 35.8806H26.624L29.4666 34.6315L29.2675 35.8806Z" fill="#667185"/>
<path d="M29.2675 36.0889H26.624C26.5258 36.0889 26.4407 36.0194 26.4203 35.9231C26.3999 35.8269 26.4499 35.7296 26.5407 35.6898L29.3833 34.4417C29.4527 34.4111 29.5342 34.4213 29.5944 34.4676C29.6545 34.5139 29.6851 34.5898 29.6731 34.6657L29.474 35.9139C29.4564 36.0139 29.3694 36.0889 29.2675 36.0889ZM27.6157 35.6722H29.0888L29.1999 34.9768L27.6157 35.6722Z" fill="#F9FAFB"/>
<path d="M64.812 20.4204L62.5657 34.5083L62.3463 35.8806L62.075 37.5824L63.1388 36.9611L64.5435 38.8759L64.762 37.5037L67.0092 23.4157L64.812 20.4204Z" fill="#E4E7EC"/>
<path d="M64.5435 39.0843C64.4777 39.0843 64.4157 39.0537 64.3759 38.9991L63.0824 37.2352L62.1805 37.762C62.1111 37.8028 62.024 37.8 61.9574 37.7537C61.8907 37.7083 61.8564 37.6287 61.8694 37.5491L64.6064 20.387C64.6194 20.3037 64.6814 20.237 64.7629 20.2176C64.8444 20.1982 64.9305 20.2287 64.9796 20.2972L67.1768 23.2926C67.2101 23.337 67.2231 23.3935 67.2148 23.4491L64.749 38.9093C64.7361 38.9926 64.674 39.0593 64.5926 39.0787C64.5759 39.0824 64.5601 39.0843 64.5435 39.0843ZM63.1389 36.7528C63.2037 36.7528 63.2666 36.7824 63.3074 36.838L64.4166 38.3509L66.7898 23.4695L64.9389 20.9463L62.35 37.1806L63.0333 36.7806C63.0666 36.762 63.1027 36.7528 63.1389 36.7528Z" fill="#F9FAFB"/>
<path d="M26.6223 35.8806H29.2677L28.9955 37.5852L26.6223 35.8806Z" fill="#D0D5DD"/>
<path d="M28.9954 37.7935C28.9528 37.7935 28.9102 37.7806 28.8741 37.7546L26.5009 36.05C26.4278 35.9972 26.3963 35.9028 26.4241 35.8167C26.4518 35.7306 26.5315 35.6722 26.6222 35.6722H29.2667C29.3278 35.6722 29.3852 35.6991 29.425 35.7454C29.4648 35.7917 29.4815 35.8528 29.4722 35.913L29.2 37.6176C29.1889 37.6889 29.1407 37.7491 29.0741 37.7769C29.05 37.788 29.0222 37.7935 28.9954 37.7935ZM27.2694 36.0889L28.8426 37.2185L29.0231 36.0889H27.2694Z" fill="#F9FAFB"/>
<path d="M64.812 20.4204L62.5657 34.5083L62.3463 35.8806L62.075 37.5824L47.8194 45.9148H41.9398L41.8009 46.7852L28.9954 37.5852L29.2676 35.8806L29.4667 34.6315L30.3731 28.9435H39.0583L40.3944 20.5648L40.5685 20.4204H64.812Z" fill="#F7F9FC"/>
<path d="M41.3352 49.7046L39.5963 60.6083H22.6787L35.0398 53.3843L41.3352 49.7046Z" fill="#D0D5DD"/>
<path d="M39.5963 60.6083L41.7935 63.6037H24.8759L22.6787 60.6083H39.5963Z" fill="#D0D5DD"/>
<path d="M42.2046 63.812H24.7704L22.2676 60.4H39.7018L42.2046 63.812ZM24.9815 63.3954H41.3824L39.4907 60.8167H23.0898L24.9815 63.3954Z" fill="#F9FAFB"/>
<path d="M64.9879 35.8806L67.1851 38.8759L65.5842 48.9102L63.387 45.9148L64.9879 35.8806Z" fill="#D0D5DD"/>
<path d="M65.5842 49.1185C65.5184 49.1185 65.4564 49.088 65.4166 49.0333L63.2194 46.038C63.186 45.9935 63.1731 45.937 63.1814 45.8815L64.7814 35.8472C64.7944 35.7639 64.8564 35.6972 64.9379 35.6778C65.0194 35.6583 65.1055 35.6889 65.1546 35.7574L67.3518 38.7528C67.3851 38.7972 67.3981 38.8537 67.3897 38.9093L65.7897 48.9435C65.7768 49.0269 65.7147 49.0935 65.6333 49.113C65.6175 49.1167 65.6009 49.1185 65.5842 49.1185ZM63.6064 45.862L65.4573 48.3852L66.9657 38.9296L65.1147 36.4065L63.6064 45.862Z" fill="#F9FAFB"/>
<path d="M74.2638 45.9148L76.461 48.9102L73.2314 69.1583L71.0342 66.163L74.2638 45.9148Z" fill="#D0D5DD"/>
<path d="M73.2314 69.3667C73.1657 69.3667 73.1036 69.3361 73.0638 69.2815L70.8666 66.2861C70.8333 66.2417 70.8203 66.1852 70.8286 66.1296L74.0583 45.8815C74.0712 45.7982 74.1333 45.7315 74.2147 45.712C74.2962 45.6926 74.3823 45.7232 74.4314 45.7917L76.6286 48.787C76.662 48.8315 76.6749 48.888 76.6666 48.9435L73.437 69.1917C73.424 69.275 73.362 69.3417 73.2805 69.3611C73.2647 69.3648 73.2481 69.3667 73.2314 69.3667ZM71.2536 66.1102L73.1046 68.6333L76.2416 48.9639L74.3907 46.4408L71.2536 66.1102Z" fill="#F9FAFB"/>
<path d="M64.9166 66.163L64.7907 66.9519L63.9639 72.1352L66.1611 75.1315L66.9879 69.9472L67.1139 69.1583L64.9166 66.163Z" fill="#D0D5DD"/>
<path d="M66.1611 75.3398C66.0953 75.3398 66.0333 75.3093 65.9935 75.2546L63.7963 72.2583C63.7629 72.2139 63.75 72.1574 63.7583 72.1019L64.7111 66.1296C64.7241 66.0463 64.7861 65.9796 64.8676 65.9602C64.9491 65.9407 65.0352 65.9713 65.0842 66.0398L67.2815 69.0352C67.3148 69.0796 67.3278 69.1361 67.3194 69.1917L66.3666 75.1639C66.3537 75.2472 66.2916 75.3139 66.2102 75.3333C66.1935 75.338 66.1778 75.3398 66.1611 75.3398ZM64.1833 72.0824L66.0342 74.6056L66.8944 69.212L65.0435 66.6889L64.1833 72.0824Z" fill="#F9FAFB"/>
<path d="M58.7249 66.163L59.4174 66.9519L63.9637 72.1352L64.7906 66.9519L64.9165 66.163H58.7249Z" fill="#D0D5DD"/>
<path d="M63.9638 72.3435C63.9046 72.3435 63.8472 72.3185 63.8073 72.2722L58.5684 66.3C58.5147 66.2389 58.5018 66.1509 58.5351 66.0768C58.5684 66.0028 58.6434 65.9546 58.7249 65.9546H64.9157C64.9768 65.9546 65.0342 65.9815 65.074 66.0278C65.1138 66.0741 65.1305 66.1352 65.1212 66.1954L64.1685 72.1676C64.1555 72.2472 64.0981 72.313 64.0203 72.3352C64.0027 72.3417 63.9833 72.3435 63.9638 72.3435ZM59.1851 66.3713L63.8277 71.6648L64.6722 66.3713H59.1851Z" fill="#F9FAFB"/>
<path d="M26.6222 35.8806L28.9954 37.5852L41.8009 46.7852L41.3352 49.7046L35.0398 53.3843L22.6787 60.6083L26.6222 35.8806Z" fill="#98A2B3"/>
<path d="M22.6787 60.8167C22.638 60.8167 22.5963 60.8046 22.5611 60.7806C22.4945 60.7352 22.4602 60.6556 22.4732 60.5759L26.4167 35.8482C26.4278 35.7769 26.4759 35.7167 26.5426 35.6889C26.6093 35.6611 26.6852 35.6694 26.7445 35.712L41.9232 46.6167C41.9871 46.663 42.0195 46.7407 42.0074 46.8185L41.5417 49.738C41.5315 49.8 41.4954 49.8537 41.4408 49.8852L22.7843 60.788C22.7509 60.8074 22.7148 60.8167 22.6787 60.8167ZM26.775 36.2463L22.9537 60.2065L41.1454 49.5741L41.575 46.8787L26.775 36.2463Z" fill="#F9FAFB"/>
<path d="M64.9881 35.8806L63.3872 45.9148H47.8196L64.9881 35.8806Z" fill="#98A2B3"/>
<path d="M63.387 46.1232H47.8194C47.725 46.1232 47.6426 46.0602 47.6185 45.9695C47.5935 45.8787 47.6333 45.7824 47.7148 45.7352L64.8833 35.7009C64.9527 35.6602 65.0398 35.663 65.1065 35.7093C65.1731 35.7556 65.2074 35.8343 65.1944 35.9139L63.5926 45.9472C63.5768 46.0491 63.4898 46.1232 63.387 46.1232ZM48.5889 45.7065H63.2092L64.712 36.2824L48.5889 45.7065Z" fill="#F9FAFB"/>
<path d="M63.3871 45.9148H74.2639L71.0343 66.163H64.9167H58.7259H38.7102L39.5963 60.6083L41.3352 49.7046L41.8009 46.7852L41.9398 45.9148H47.8195H63.3871ZM65.6593 57.7176C65.9546 57.7176 66.2296 57.488 66.275 57.2046C66.3204 56.9204 66.1185 56.6898 65.8232 56.6898H46.6787C46.3852 56.6898 46.1093 56.9204 46.0639 57.2046C46.0185 57.488 46.2204 57.7176 46.5139 57.7176H65.6593ZM66.3908 53.1287C66.6861 53.1287 66.9611 52.8981 67.0065 52.6139C67.0519 52.3305 66.85 52.1009 66.5546 52.1009H47.4111C47.1176 52.1009 46.8417 52.3315 46.7972 52.6139C46.7519 52.8981 46.9537 53.1287 47.2472 53.1287H66.3908ZM64.9269 62.3065C65.2222 62.3065 65.4972 62.0768 65.5426 61.7917C65.588 61.5083 65.3861 61.2778 65.0908 61.2778H53.9658C53.6704 61.2778 53.3954 61.5083 53.35 61.7917C53.3046 62.0759 53.5065 62.3065 53.8019 62.3065H64.9269Z" fill="#D0D5DD"/>
<path d="M71.0343 66.3713H38.7102C38.6491 66.3713 38.5917 66.3444 38.5519 66.2981C38.5121 66.2519 38.4954 66.1907 38.5047 66.1306L41.7343 45.8824C41.7501 45.7815 41.838 45.7065 41.9399 45.7065H74.264C74.3251 45.7065 74.3825 45.7333 74.4223 45.7796C74.4621 45.8259 74.4788 45.887 74.4695 45.9472L71.2399 66.1954C71.2241 66.2972 71.1371 66.3713 71.0343 66.3713ZM38.9547 65.9546H70.8565L74.0195 46.1231H42.1177L38.9547 65.9546ZM64.9269 62.5148H53.801C53.5973 62.5148 53.4093 62.4315 53.2852 62.287C53.163 62.1435 53.1121 61.9556 53.1436 61.7593C53.2056 61.3731 53.5658 61.0704 53.9649 61.0704H65.0908C65.2945 61.0704 65.4825 61.1537 65.6065 61.2981C65.7288 61.4417 65.7797 61.6287 65.7482 61.8241C65.6871 62.212 65.326 62.5148 64.9269 62.5148ZM53.9658 61.487C53.7732 61.487 53.5852 61.6417 53.5565 61.825C53.5445 61.9 53.5612 61.9667 53.6038 62.0167C53.6491 62.0694 53.7195 62.0981 53.8019 62.0981H64.9278C65.1204 62.0981 65.3084 61.9426 65.338 61.7593C65.3501 61.6852 65.3334 61.6185 65.2908 61.5685C65.2454 61.5157 65.1751 61.4861 65.0917 61.4861H53.9658V61.487ZM65.6593 57.9259H46.5149C46.3112 57.9259 46.1241 57.8426 46.0001 57.6981C45.8778 57.5546 45.8269 57.3676 45.8584 57.1713C45.9204 56.7843 46.2806 56.4815 46.6788 56.4815H65.8232C66.0269 56.4815 66.2149 56.5648 66.339 56.7093C66.4612 56.8528 66.5121 57.0407 66.4806 57.237C66.4186 57.6231 66.0584 57.9259 65.6593 57.9259ZM46.6788 56.8981C46.4862 56.8981 46.2991 57.0537 46.2704 57.237C46.2584 57.3102 46.2751 57.3787 46.3177 57.4278C46.363 57.4806 46.4325 57.5093 46.5149 57.5093H65.6593C65.8519 57.5093 66.0399 57.3546 66.0686 57.1713C66.0806 57.0963 66.064 57.0296 66.0214 56.9796C65.976 56.9269 65.9056 56.8981 65.8223 56.8981H46.6788ZM66.3908 53.337H47.2464C47.0427 53.337 46.8556 53.2537 46.7325 53.1093C46.6093 52.9657 46.5593 52.7778 46.5908 52.5815C46.6528 52.1954 47.0121 51.8926 47.4112 51.8926H66.5556C66.7593 51.8926 66.9482 51.9759 67.0714 52.1204C67.1936 52.2639 67.2445 52.4509 67.213 52.6463C67.151 53.0343 66.7899 53.337 66.3908 53.337ZM47.4112 52.3093C47.2186 52.3093 47.0315 52.4639 47.0028 52.6472C46.9908 52.7213 47.0075 52.7898 47.0501 52.8389C47.0945 52.8917 47.1649 52.9204 47.2473 52.9204H66.3917C66.5843 52.9204 66.7723 52.7648 66.8019 52.5815C66.814 52.5074 66.7973 52.4407 66.7547 52.3917C66.7093 52.3389 66.639 52.3093 66.5556 52.3093H47.4112Z" fill="#F9FAFB"/>
<path d="M66.5545 52.1009C66.8499 52.1009 67.0517 52.3315 67.0063 52.6139C66.961 52.8981 66.686 53.1287 66.3906 53.1287H47.2462C46.9526 53.1287 46.7508 52.8981 46.7962 52.6139C46.8415 52.3305 47.1165 52.1009 47.4101 52.1009H66.5545Z" fill="#98A2B3"/>
<path d="M66.3906 53.3417H47.2462C47.0416 53.3417 46.8527 53.2583 46.7286 53.112C46.6054 52.9676 46.5545 52.7787 46.586 52.5806C46.648 52.1926 47.0101 51.888 47.4101 51.888H66.5545C66.7601 51.888 66.949 51.9713 67.074 52.1176C67.1971 52.262 67.248 52.45 67.2166 52.6472C67.1545 53.037 66.7916 53.3417 66.3906 53.3417ZM47.411 52.3139C47.2212 52.3139 47.036 52.4667 47.0064 52.6482C46.9943 52.7222 47.011 52.787 47.0527 52.8361C47.0971 52.888 47.1656 52.9157 47.2471 52.9157H66.3916C66.5823 52.9157 66.7684 52.762 66.7971 52.5806C66.8091 52.5074 66.7925 52.4426 66.7508 52.3935C66.7064 52.3417 66.6369 52.313 66.5554 52.313H47.411V52.3139Z" fill="#98A2B3"/>
<path d="M65.8231 56.6898C66.1184 56.6898 66.3203 56.9204 66.2749 57.2046C66.2295 57.488 65.9545 57.7176 65.6592 57.7176H46.5147C46.2212 57.7176 46.0193 57.487 46.0647 57.2046C46.1101 56.9204 46.3851 56.6898 46.6795 56.6898H65.8231Z" fill="#98A2B3"/>
<path d="M65.6592 57.9296H46.5147C46.3101 57.9296 46.1212 57.8463 45.9971 57.7C45.874 57.5556 45.8231 57.3667 45.8546 57.1704C45.9166 56.7815 46.2786 56.4769 46.6786 56.4769H65.8231C66.0286 56.4769 66.2175 56.5602 66.3416 56.7065C66.4647 56.8509 66.5157 57.0398 66.4842 57.238C66.4221 57.6259 66.0601 57.9296 65.6592 57.9296ZM46.6786 56.9019C46.4888 56.9019 46.3036 57.0556 46.274 57.237C46.262 57.3102 46.2786 57.375 46.3203 57.4241C46.3647 57.4759 46.4333 57.5046 46.5147 57.5046H65.6592C65.8499 57.5046 66.036 57.3519 66.0647 57.1704C66.0768 57.0963 66.0601 57.0315 66.0184 56.9824C65.974 56.9306 65.9046 56.9019 65.8231 56.9019H46.6786Z" fill="#98A2B3"/>
<path d="M65.0906 61.2787C65.3859 61.2787 65.5878 61.5093 65.5424 61.7917C65.497 62.0759 65.222 62.3065 64.9267 62.3065H53.8008C53.5054 62.3065 53.3035 62.0759 53.3489 61.7917C53.3943 61.5083 53.6693 61.2787 53.9646 61.2787H65.0906Z" fill="#98A2B3"/>
<path d="M64.9267 62.5194H53.8008C53.5953 62.5194 53.4064 62.4361 53.2823 62.2898C53.1592 62.1454 53.1082 61.9565 53.1397 61.7583C53.2017 61.3704 53.5638 61.0657 53.9647 61.0657H65.0906C65.2962 61.0657 65.4851 61.1491 65.6101 61.2954C65.7332 61.4398 65.7842 61.6278 65.7527 61.825C65.6906 62.2148 65.3277 62.5194 64.9267 62.5194ZM53.9656 61.4917C53.7749 61.4917 53.5888 61.6444 53.5601 61.8259C53.548 61.9 53.5647 61.9648 53.6064 62.0139C53.6508 62.0657 53.7203 62.0944 53.8017 62.0944H64.9277C65.1184 62.0944 65.3045 61.9407 65.3332 61.7593C65.3453 61.6861 65.3286 61.6213 65.2869 61.5722C65.2425 61.5204 65.173 61.4917 65.0916 61.4917H53.9656Z" fill="#98A2B3"/>
<path d="M58.725 66.163L60.9222 69.1583H40.9074L38.7102 66.163H58.725Z" fill="#D0D5DD"/>
<path d="M60.9222 69.3667H40.9074C40.8408 69.3667 40.7787 69.3352 40.7398 69.2815L38.5426 66.2861C38.4963 66.2231 38.4889 66.1389 38.525 66.0685C38.5611 65.9981 38.6324 65.9546 38.7111 65.9546H58.7259C58.7926 65.9546 58.8546 65.9861 58.8935 66.0398L61.0908 69.0352C61.1371 69.0981 61.1445 69.1824 61.1083 69.2528C61.0722 69.3231 61.0009 69.3667 60.9222 69.3667ZM41.013 68.95H60.5111L58.6195 66.3713H39.1222L41.013 68.95Z" fill="#F9FAFB"/>
<path d="M63.9637 72.1352L59.4174 66.9519L58.7249 66.163L60.9221 69.1583L61.6137 69.9472L66.161 75.1315L63.9637 72.1352Z" fill="#D0D5DD"/>
<path d="M66.1612 75.3398C66.1028 75.3398 66.0454 75.3157 66.0047 75.2685L60.7658 69.2963C60.7621 69.2917 60.7584 69.287 60.7547 69.2824L58.5575 66.287C58.4917 66.1972 58.5084 66.0713 58.5954 66.0009C58.6825 65.9315 58.8093 65.9426 58.8825 66.0259L64.1214 71.9982C64.1251 72.0028 64.1288 72.0074 64.1325 72.012L66.3297 75.0074C66.3954 75.0972 66.3788 75.2231 66.2917 75.2935C66.2528 75.3241 66.2075 75.3398 66.1612 75.3398Z" fill="#F9FAFB"/>
<path d="M71.0343 66.163L73.2316 69.1583H67.114L64.9167 66.163H71.0343Z" fill="#D0D5DD"/>
<path d="M73.2316 69.3667H67.114C67.0473 69.3667 66.9853 69.3352 66.9464 69.2815L64.7491 66.2861C64.7029 66.2231 64.6954 66.1389 64.7316 66.0685C64.7677 65.9981 64.839 65.9546 64.9177 65.9546H71.0353C71.1019 65.9546 71.164 65.9861 71.2029 66.0398L73.4001 69.0352C73.4464 69.0981 73.4538 69.1824 73.4177 69.2528C73.3816 69.3231 73.3103 69.3667 73.2316 69.3667ZM67.2195 68.95H72.8204L70.9288 66.3713H65.3279L67.2195 68.95Z" fill="#F9FAFB"/>
<path d="M41.8009 46.9935C41.7584 46.9935 41.7158 46.9806 41.6796 46.9546L28.8741 37.7546C28.8102 37.7083 28.7778 37.6306 28.7898 37.5528L30.1676 28.912C30.1759 28.862 30.2009 28.8176 30.2398 28.7852L40.2611 20.4065L40.4361 20.2611C40.4732 20.2296 40.5204 20.213 40.5695 20.213H64.813C64.8741 20.213 64.9315 20.2398 64.9713 20.2861C65.0111 20.3324 65.0278 20.3935 65.0185 20.4537L62.2815 37.6157C62.2713 37.6778 62.2352 37.7315 62.1806 37.763L47.925 46.0954C47.8935 46.1139 47.8565 46.1241 47.8195 46.1241H42.1176L42.0065 46.8185C41.9954 46.8898 41.9472 46.95 41.8806 46.9778C41.8556 46.988 41.8287 46.9935 41.8009 46.9935ZM29.2213 37.4907L41.6482 46.4194L41.7334 45.8824C41.7491 45.7815 41.8371 45.7065 41.9389 45.7065H47.7621L61.8843 37.4519L64.5676 20.6278H40.6445L40.5278 20.7241L30.5667 29.0519L29.2213 37.4907Z" fill="#F9FAFB"/>
<path d="M40.3946 20.5648L39.0585 28.9435H30.3733L40.3946 20.5648Z" fill="#D0D5DD"/>
<path d="M39.0584 29.1518H30.3732C30.2853 29.1518 30.2075 29.0972 30.1779 29.0148C30.1482 28.9324 30.1732 28.8398 30.2399 28.7842L40.2612 20.4055C40.3279 20.35 40.4223 20.3417 40.4973 20.3842C40.5732 20.4268 40.614 20.512 40.6001 20.5981L39.264 28.9768C39.2482 29.0778 39.1612 29.1518 39.0584 29.1518ZM30.9473 28.7352H38.8806L40.101 21.0815L30.9473 28.7352Z" fill="#F9FAFB"/>
<path d="M64.9426 16.7852C68.4574 16.7852 70.8676 19.5324 70.3269 22.9222C69.7861 26.312 66.4991 29.0593 62.9852 29.0593C59.4704 29.0593 57.0602 26.312 57.6009 22.9222C58.1417 19.5324 61.4278 16.7852 64.9426 16.7852ZM65.2834 19.2435C65.3806 18.837 65.0917 18.4852 64.6759 18.4852C64.6574 18.4852 64.6398 18.4861 64.6213 18.487C64.2121 18.5139 63.8528 18.8528 63.8176 19.2435L63.2778 25.388C63.2648 25.5269 63.3621 25.6407 63.5084 25.6509C63.5148 25.6509 63.5213 25.6519 63.5287 25.6519C63.6824 25.6519 63.8296 25.537 63.8648 25.388L65.2834 19.2435ZM63.2565 27.3593C63.6315 27.3593 63.9824 27.0667 64.0398 26.7046C64.0972 26.3426 63.8408 26.05 63.4658 26.05C63.0908 26.05 62.7398 26.3426 62.6824 26.7046C62.6241 27.0657 62.8815 27.3593 63.2565 27.3593Z" fill="#98A2B3"/>
<path d="M62.985 29.2676C61.1952 29.2676 59.6267 28.5852 58.5684 27.3454C57.5443 26.1454 57.1276 24.563 57.3943 22.8898C57.9499 19.4093 61.335 16.5769 64.9424 16.5769C66.7323 16.5769 68.3008 17.2593 69.3591 18.4991C70.3832 19.6991 70.7999 21.2815 70.5332 22.9546C69.9776 26.4361 66.5915 29.2676 62.985 29.2676ZM64.9424 16.9935C61.5313 16.9935 58.3304 19.6676 57.8063 22.9556C57.5591 24.5065 57.9424 25.9695 58.886 27.075C59.8628 28.2204 61.3193 28.8509 62.985 28.8509C66.3961 28.8509 69.5971 26.1769 70.1211 22.8889C70.3684 21.338 69.985 19.875 69.0415 18.7695C68.0647 17.6241 66.6082 16.9935 64.9424 16.9935ZM63.2563 27.5676C63.0137 27.5676 62.7897 27.4695 62.6434 27.2972C62.498 27.1269 62.4387 26.9046 62.4758 26.6713C62.5461 26.2269 62.9452 25.875 63.3989 25.8435C63.31 25.8194 63.2323 25.7713 63.173 25.7019C63.0952 25.6102 63.0582 25.4926 63.0702 25.3695L63.61 19.2259C63.6545 18.7296 64.0924 18.3148 64.6073 18.2806C64.6295 18.2787 64.6526 18.2778 64.6758 18.2778C64.9415 18.2778 65.1841 18.3907 65.3397 18.5889C65.4934 18.7833 65.5461 19.0389 65.486 19.2917L64.0665 25.4352C64.0156 25.65 63.8286 25.8176 63.6119 25.8537C63.7962 25.8852 63.961 25.975 64.0767 26.112C64.2221 26.2824 64.2813 26.5046 64.2443 26.738C64.1712 27.2028 63.736 27.5676 63.2563 27.5676ZM63.4647 26.2574C63.1934 26.2574 62.9286 26.4769 62.8869 26.737C62.8693 26.8482 62.8952 26.9509 62.96 27.0269C63.0286 27.1065 63.1332 27.1509 63.2563 27.1509C63.5276 27.1509 63.7924 26.9315 63.8341 26.6713C63.8517 26.5602 63.8258 26.4574 63.761 26.3815C63.6924 26.3019 63.5878 26.2574 63.4647 26.2574ZM64.6758 18.6935C64.6628 18.6935 64.6499 18.6945 64.636 18.6954C64.3295 18.7157 64.0508 18.975 64.0249 19.262L63.485 25.4065C63.4841 25.4176 63.486 25.4259 63.4906 25.4315C63.4962 25.438 63.5082 25.4426 63.5221 25.4435C63.585 25.4435 63.648 25.3945 63.661 25.3407L65.0804 19.1972C65.0804 19.1963 65.0804 19.1963 65.0804 19.1954C65.1119 19.0657 65.0869 18.9417 65.0119 18.8463C64.936 18.7491 64.8137 18.6935 64.6758 18.6935Z" fill="#F9FAFB"/>
<path d="M63.4647 26.0491C63.8397 26.0491 64.0971 26.3417 64.0387 26.7037C63.9804 27.0657 63.6304 27.3583 63.2554 27.3583C62.8804 27.3583 62.623 27.0657 62.6813 26.7037C62.7397 26.3417 63.0897 26.0491 63.4647 26.0491Z" fill="#F9FAFB"/>
<path d="M63.2563 27.4056C63.0582 27.4056 62.8841 27.3296 62.7665 27.1917C62.6526 27.0583 62.6063 26.8824 62.6359 26.6972C62.697 26.3148 63.0693 26.0037 63.4646 26.0037C63.6628 26.0037 63.8369 26.0796 63.9545 26.2176C64.0683 26.3509 64.1146 26.5269 64.085 26.712C64.0239 27.0935 63.6526 27.4056 63.2563 27.4056ZM63.4646 26.0954C63.1119 26.0954 62.7813 26.3713 62.7267 26.7111C62.7017 26.8695 62.7406 27.0185 62.8359 27.1315C62.9359 27.2482 63.0841 27.313 63.2554 27.313C63.6082 27.313 63.9387 27.037 63.9933 26.6972C64.0183 26.5389 63.9795 26.3898 63.8841 26.2769C63.7841 26.1602 63.6359 26.0954 63.4646 26.0954Z" fill="#F9FAFB"/>
<path d="M64.6759 18.4852C65.0916 18.4852 65.3805 18.8361 65.2833 19.2435L63.8638 25.388C63.8286 25.537 63.6814 25.6519 63.5277 25.6519C63.5212 25.6519 63.5148 25.6519 63.5073 25.6509C63.361 25.6407 63.2638 25.5269 63.2768 25.388L63.8166 19.2435C63.8518 18.8528 64.2111 18.5148 64.6203 18.487C64.6398 18.4861 64.6573 18.4852 64.6759 18.4852Z" fill="#F9FAFB"/>
<path d="M63.5276 25.6981C63.5202 25.6981 63.5119 25.6981 63.5045 25.6972C63.4202 25.6917 63.3461 25.6556 63.2961 25.5963C63.2471 25.5389 63.2239 25.463 63.2313 25.3833L63.7711 19.2389C63.8082 18.8278 64.1878 18.4694 64.6174 18.4407C64.8554 18.4231 65.0758 18.5157 65.2119 18.688C65.3341 18.8435 65.3767 19.0491 65.3276 19.2537L63.9082 25.3981C63.8693 25.5694 63.7054 25.6981 63.5276 25.6981ZM64.6758 18.5315C64.6591 18.5315 64.6415 18.5324 64.6239 18.5333C64.2369 18.5593 63.8961 18.8796 63.8637 19.2472L63.3239 25.3917C63.3193 25.4463 63.3341 25.4972 63.3674 25.5361C63.4017 25.5759 63.4526 25.6009 63.5119 25.6046C63.5174 25.6046 63.523 25.6056 63.5286 25.6056C63.6619 25.6056 63.7897 25.5055 63.8193 25.3778L65.2387 19.2333C65.2813 19.0537 65.2471 18.8806 65.1406 18.7463C65.0323 18.6102 64.8628 18.5315 64.6758 18.5315Z" fill="#F9FAFB"/>
</svg>
