<svg width="21" height="20" viewBox="0 0 21 20" fill="none" xmlns="http://www.w3.org/2000/svg">
<path d="M17.7229 16.9011H14.7546V12.2983C14.7546 11.2008 14.7348 9.78784 13.2108 9.78784C11.6648 9.78784 11.4282 10.9837 11.4282 12.2184V16.9008H8.45985V7.43563H11.3095V8.72915H11.3494C11.6345 8.24635 12.0466 7.84918 12.5417 7.57993C13.0369 7.31069 13.5965 7.17945 14.1609 7.2002C17.1695 7.2002 17.7242 9.1596 17.7242 11.7087L17.7229 16.9011ZM5.11058 6.14182C4.76989 6.14188 4.43683 6.04191 4.15352 5.85454C3.87021 5.66718 3.64939 5.40084 3.51896 5.0892C3.38853 4.77757 3.35434 4.43464 3.42075 4.10377C3.48715 3.77291 3.65116 3.46897 3.89203 3.23039C4.13289 2.99182 4.43979 2.82932 4.77392 2.76345C5.10806 2.69758 5.45441 2.73129 5.76919 2.86033C6.08397 2.98937 6.35303 3.20793 6.54236 3.48838C6.73169 3.76883 6.83278 4.09858 6.83284 4.43591C6.83288 4.65989 6.78836 4.88169 6.70183 5.08864C6.6153 5.29559 6.48847 5.48363 6.32854 5.64204C6.16861 5.80045 5.97873 5.92612 5.76975 6.01187C5.56078 6.09762 5.3368 6.14178 5.11058 6.14182ZM6.59475 16.9011H3.62332V7.43563H6.59475V16.9011ZM19.2028 0.00122936H2.13174C1.74428 -0.00310012 1.37091 0.14506 1.09371 0.413153C0.816517 0.681246 0.658171 1.04734 0.653442 1.43098V18.404C0.658009 18.7878 0.816262 19.1542 1.09345 19.4226C1.37063 19.6909 1.74408 19.8394 2.13174 19.8353H19.2028C19.5912 19.8401 19.9657 19.6921 20.244 19.4237C20.5223 19.1554 20.6816 18.7886 20.6869 18.404V1.42976C20.6814 1.04535 20.522 0.678844 20.2437 0.410758C19.9654 0.142671 19.591 -0.00506561 19.2028 4.23388e-06" fill="#0A66C2"/>
</svg>
