<svg width="16" height="16" viewBox="0 0 16 16" fill="none" xmlns="http://www.w3.org/2000/svg">
<path fill-rule="evenodd" clip-rule="evenodd" d="M13.7306 1.9399C12.8329 1.04217 11.3774 1.04217 10.4797 1.9399L4.79602 7.62354C4.38803 8.03153 4.12337 8.56085 4.04178 9.13203L3.87707 10.2849C3.75137 11.1649 4.50561 11.9191 5.38557 11.7934L6.53848 11.6287C7.10967 11.5471 7.63898 11.2825 8.04698 10.8745L13.7306 5.19085C14.6283 4.29312 14.6283 2.83762 13.7306 1.9399ZM11.5621 2.76691C11.9379 2.51073 12.4544 2.54933 12.7878 2.8827C13.1212 3.21608 13.1598 3.7326 12.9036 4.10839L11.5621 2.76691ZM10.6074 3.69779L11.9727 5.06313L7.10417 9.93168C6.90017 10.1357 6.63551 10.268 6.34992 10.3088L5.19701 10.4735L5.36171 9.3206C5.40251 9.035 5.53484 8.77034 5.73883 8.56635L10.6074 3.69779Z" fill="#21B557"/>
<path d="M3.99992 1.33324C2.52716 1.33324 1.33325 2.52715 1.33325 3.9999V11.9999C1.33325 13.4727 2.52716 14.6666 3.99992 14.6666H11.9999C13.4727 14.6666 14.6666 13.4727 14.6666 11.9999V7.9999C14.6666 7.63172 14.3681 7.33324 13.9999 7.33324C13.6317 7.33324 13.3333 7.63172 13.3333 7.9999V11.9999C13.3333 12.7363 12.7363 13.3332 11.9999 13.3332H3.99992C3.26354 13.3332 2.66659 12.7363 2.66659 11.9999V3.9999C2.66659 3.26353 3.26354 2.66657 3.99992 2.66657H5.78939C6.15758 2.66657 6.45606 2.36809 6.45606 1.9999C6.45606 1.63171 6.15758 1.33324 5.78939 1.33324H3.99992Z" fill="#21B557"/>
</svg>
