<svg width="25" height="24" viewBox="0 0 25 24" fill="none" xmlns="http://www.w3.org/2000/svg">
<path d="M17.4355 22.6111H7.56465C4.16908 22.6111 1.88892 20.331 1.88892 16.9354V12C1.88892 8.95978 3.76437 6.7586 6.67627 6.39338C6.95265 6.35389 7.25865 6.32427 7.56465 6.32427H17.4355C17.6724 6.32427 17.9784 6.33414 18.2942 6.38349C21.2061 6.7191 23.1112 8.93017 23.1112 12V16.9354C23.1112 20.331 20.831 22.6111 17.4355 22.6111ZM7.56465 7.8049C7.32775 7.8049 7.10072 7.82463 6.87369 7.85424C4.7021 8.13062 3.36954 9.70997 3.36954 12V16.9354C3.36954 19.4821 5.01797 21.1305 7.56465 21.1305H17.4355C19.9822 21.1305 21.6306 19.4821 21.6306 16.9354V12C21.6306 9.69023 20.2783 8.10103 18.087 7.84439C17.8501 7.80491 17.6428 7.8049 17.4355 7.8049H7.56465Z" fill="#202020"/>
<path d="M6.76502 7.86413C6.52812 7.86413 6.31096 7.75556 6.1629 7.55814C5.99509 7.33111 5.97535 7.03499 6.10367 6.78822C6.27148 6.45261 6.50838 6.12687 6.81437 5.83074L10.0224 2.61284C11.661 0.984155 14.3261 0.984155 15.9646 2.61284L17.692 4.36C18.4225 5.08057 18.8667 6.04791 18.916 7.07448C18.9259 7.30151 18.837 7.51864 18.6692 7.6667C18.5014 7.81477 18.2744 7.88389 18.0573 7.8444C17.8598 7.81479 17.6525 7.80491 17.4354 7.80491H7.56456C7.32766 7.80491 7.10063 7.82464 6.8736 7.85425C6.84399 7.86412 6.8045 7.86413 6.76502 7.86413ZM8.41345 6.32429H17.2577C17.1294 5.98868 16.9221 5.68269 16.6457 5.40631L14.9085 3.6493C13.8523 2.60299 12.1249 2.60299 11.0588 3.6493L8.41345 6.32429Z" fill="#202020"/>
<path d="M22.3708 17.1822H19.4095C17.9092 17.1822 16.6951 15.9681 16.6951 14.4677C16.6951 12.9673 17.9092 11.7532 19.4095 11.7532H22.3708C22.7755 11.7532 23.1111 12.0888 23.1111 12.4935C23.1111 12.8982 22.7755 13.2339 22.3708 13.2339H19.4095C18.7285 13.2339 18.1757 13.7866 18.1757 14.4677C18.1757 15.1488 18.7285 15.7016 19.4095 15.7016H22.3708C22.7755 15.7016 23.1111 16.0372 23.1111 16.4419C23.1111 16.8466 22.7755 17.1822 22.3708 17.1822Z" fill="#202020"/>
</svg>
